<svg width="18" height="18" viewBox="0 0 18 18" fill="none" xmlns="http://www.w3.org/2000/svg">
<rect width="18" height="18" fill="#6E6F73"/>
<circle cx="9" cy="9" r="6" fill="black"/>
<path d="M12.8074 12.8068H5.19214V5.19159H12.8074V12.8068ZM5.88452 11.7678C5.6935 11.7678 5.53808 11.9225 5.53784 12.1135C5.53784 12.3046 5.69335 12.4601 5.88452 12.4601C6.07561 12.46 6.23022 12.3046 6.23022 12.1135C6.22998 11.9226 6.07546 11.7679 5.88452 11.7678ZM6.92261 11.7678C6.73165 11.7678 6.57715 11.9225 6.5769 12.1135C6.5769 12.3046 6.7315 12.4601 6.92261 12.4601C7.11378 12.4601 7.26929 12.3046 7.26929 12.1135C7.26904 11.9225 7.11363 11.7678 6.92261 11.7678ZM7.96167 11.7678C7.77064 11.7678 7.61523 11.9225 7.61499 12.1135C7.61499 12.3046 7.77049 12.4601 7.96167 12.4601C8.15263 12.4599 8.30737 12.3045 8.30737 12.1135C8.30713 11.9227 8.15248 11.768 7.96167 11.7678ZM8.99976 11.7678C8.80873 11.7678 8.65332 11.9225 8.65308 12.1135C8.65308 12.3046 8.80858 12.4601 8.99976 12.4601C9.19087 12.4601 9.34546 12.3046 9.34546 12.1135C9.34522 11.9225 9.19072 11.7678 8.99976 11.7678ZM10.0378 11.7678C9.84691 11.7679 9.69238 11.9226 9.69214 12.1135C9.69214 12.3046 9.84676 12.46 10.0378 12.4601C10.229 12.4601 10.3845 12.3046 10.3845 12.1135C10.3843 11.9225 10.2289 11.7678 10.0378 11.7678ZM11.0769 11.7678C10.8859 11.7678 10.7305 11.9225 10.7302 12.1135C10.7302 12.3046 10.8857 12.4601 11.0769 12.4601C11.2679 12.4599 11.4226 12.3045 11.4226 12.1135C11.4224 11.9226 11.2677 11.768 11.0769 11.7678ZM12.115 11.7678C11.9241 11.768 11.7695 11.9226 11.7693 12.1135C11.7693 12.3045 11.924 12.46 12.115 12.4601C12.3062 12.4601 12.4617 12.3046 12.4617 12.1135C12.4614 11.9225 12.306 11.7678 12.115 11.7678ZM5.88452 10.7307C5.6935 10.7307 5.53808 10.8854 5.53784 11.0764C5.53784 11.2675 5.69335 11.423 5.88452 11.423C6.07561 11.4229 6.23022 11.2675 6.23022 11.0764C6.22998 10.8854 6.07546 10.7308 5.88452 10.7307ZM6.92261 10.7307C6.73165 10.7307 6.57715 10.8854 6.5769 11.0764C6.5769 11.2675 6.7315 11.4229 6.92261 11.423C7.11378 11.423 7.26929 11.2675 7.26929 11.0764C7.26904 10.8854 7.11363 10.7307 6.92261 10.7307ZM7.96167 10.7307C7.77064 10.7307 7.61523 10.8854 7.61499 11.0764C7.61499 11.2675 7.77049 11.423 7.96167 11.423C8.15263 11.4228 8.30737 11.2674 8.30737 11.0764C8.30713 10.8855 8.15248 10.7309 7.96167 10.7307ZM8.99976 10.7307C8.80873 10.7307 8.65332 10.8854 8.65308 11.0764C8.65308 11.2675 8.80858 11.423 8.99976 11.423C9.19087 11.423 9.34546 11.2675 9.34546 11.0764C9.34522 10.8854 9.19072 10.7307 8.99976 10.7307ZM10.0378 10.7307C9.84691 10.7308 9.69238 10.8855 9.69214 11.0764C9.69214 11.2675 9.84676 11.4229 10.0378 11.423C10.229 11.423 10.3845 11.2675 10.3845 11.0764C10.3843 10.8854 10.2289 10.7307 10.0378 10.7307ZM11.0769 10.7307C10.8859 10.7307 10.7305 10.8854 10.7302 11.0764C10.7302 11.2675 10.8857 11.423 11.0769 11.423C11.2679 11.4228 11.4226 11.2674 11.4226 11.0764C11.4224 10.8855 11.2677 10.7309 11.0769 10.7307ZM12.115 10.7307C11.9241 10.7308 11.7695 10.8855 11.7693 11.0764C11.7693 11.2674 11.924 11.4228 12.115 11.423C12.3062 11.423 12.4617 11.2675 12.4617 11.0764C12.4614 10.8854 12.306 10.7307 12.115 10.7307ZM5.88452 9.69159C5.69335 9.69159 5.53784 9.84709 5.53784 10.0383C5.53802 10.2293 5.69346 10.384 5.88452 10.384C6.0755 10.3839 6.23005 10.2292 6.23022 10.0383C6.23022 9.84715 6.07561 9.69169 5.88452 9.69159ZM6.92261 9.69159C6.7315 9.69167 6.5769 9.84715 6.5769 10.0383C6.57708 10.2292 6.73161 10.3839 6.92261 10.384C7.11367 10.384 7.26911 10.2293 7.26929 10.0383C7.26929 9.84709 7.11378 9.69159 6.92261 9.69159ZM7.96167 9.69159C7.77049 9.69159 7.61499 9.84709 7.61499 10.0383C7.61517 10.2293 7.7706 10.384 7.96167 10.384C8.15252 10.3837 8.30719 10.2291 8.30737 10.0383C8.30737 9.84725 8.15263 9.69185 7.96167 9.69159ZM8.99976 9.69159C8.80858 9.69159 8.65308 9.84709 8.65308 10.0383C8.65325 10.2293 8.80869 10.384 8.99976 10.384C9.19076 10.3839 9.34528 10.2292 9.34546 10.0383C9.34546 9.84714 9.19087 9.69166 8.99976 9.69159ZM10.0378 9.69159C9.84676 9.6917 9.69214 9.84716 9.69214 10.0383C9.69232 10.2292 9.84687 10.3839 10.0378 10.384C10.2289 10.384 10.3843 10.2293 10.3845 10.0383C10.3845 9.84709 10.229 9.69159 10.0378 9.69159ZM11.0769 9.69159C10.8857 9.69159 10.7302 9.84709 10.7302 10.0383C10.7304 10.2293 10.8858 10.384 11.0769 10.384C11.2678 10.3837 11.4224 10.2291 11.4226 10.0383C11.4226 9.84724 11.2679 9.69182 11.0769 9.69159ZM12.115 9.69159C11.924 9.69178 11.7693 9.84721 11.7693 10.0383C11.7695 10.2292 11.9241 10.3838 12.115 10.384C12.3061 10.384 12.4615 10.2293 12.4617 10.0383C12.4617 9.84709 12.3062 9.69159 12.115 9.69159ZM5.88452 8.65253C5.69335 8.65253 5.53784 8.80803 5.53784 8.99921C5.53791 9.19032 5.69339 9.34491 5.88452 9.34491C6.07557 9.34481 6.23015 9.19026 6.23022 8.99921C6.23022 8.80809 6.07561 8.65263 5.88452 8.65253ZM6.92261 8.65253C6.7315 8.65261 6.5769 8.80808 6.5769 8.99921C6.57698 9.19027 6.73155 9.34482 6.92261 9.34491C7.11374 9.34491 7.26921 9.19032 7.26929 8.99921C7.26929 8.80803 7.11378 8.65253 6.92261 8.65253ZM7.96167 8.65253C7.77049 8.65253 7.61499 8.80803 7.61499 8.99921C7.61506 9.19032 7.77054 9.34491 7.96167 9.34491C8.15258 9.34465 8.3073 9.19016 8.30737 8.99921C8.30737 8.80819 8.15263 8.65278 7.96167 8.65253ZM8.99976 8.65253C8.80858 8.65253 8.65308 8.80803 8.65308 8.99921C8.65315 9.19032 8.80863 9.34491 8.99976 9.34491C9.19082 9.34484 9.34539 9.19027 9.34546 8.99921C9.34546 8.80808 9.19087 8.6526 8.99976 8.65253ZM10.0378 8.65253C9.84676 8.65264 9.69214 8.8081 9.69214 8.99921C9.69221 9.19025 9.84681 9.3448 10.0378 9.34491C10.229 9.34491 10.3844 9.19032 10.3845 8.99921C10.3845 8.80803 10.229 8.65253 10.0378 8.65253ZM11.0769 8.65253C10.8857 8.65253 10.7302 8.80803 10.7302 8.99921C10.7303 9.19032 10.8858 9.34491 11.0769 9.34491C11.2678 9.34468 11.4225 9.19018 11.4226 8.99921C11.4226 8.80817 11.2679 8.65276 11.0769 8.65253ZM12.115 8.65253C11.924 8.65272 11.7693 8.80815 11.7693 8.99921C11.7694 9.1902 11.924 9.34472 12.115 9.34491C12.3061 9.34491 12.4616 9.19032 12.4617 8.99921C12.4617 8.80803 12.3062 8.65253 12.115 8.65253ZM5.88452 7.61444C5.69337 7.61444 5.53787 7.769 5.53784 7.96014C5.53784 8.15132 5.69335 8.30682 5.88452 8.30682C6.07561 8.30672 6.23022 8.15126 6.23022 7.96014C6.23019 7.76906 6.07559 7.61454 5.88452 7.61444ZM6.92261 7.61444C6.73152 7.61453 6.57694 7.76905 6.5769 7.96014C6.5769 8.15127 6.7315 8.30674 6.92261 8.30682C7.11378 8.30682 7.26929 8.15132 7.26929 7.96014C7.26925 7.769 7.11376 7.61444 6.92261 7.61444ZM7.96167 7.61444C7.77051 7.61444 7.61502 7.769 7.61499 7.96014C7.61499 8.15132 7.77049 8.30682 7.96167 8.30682C8.15263 8.30657 8.30737 8.15116 8.30737 7.96014C8.30734 7.76916 8.15261 7.6147 7.96167 7.61444ZM8.99976 7.61444C8.8086 7.61444 8.65311 7.769 8.65308 7.96014C8.65308 8.15132 8.80858 8.30682 8.99976 8.30682C9.19087 8.30675 9.34546 8.15127 9.34546 7.96014C9.34543 7.76904 9.19085 7.61451 8.99976 7.61444ZM10.0378 7.61444C9.84678 7.61455 9.69217 7.76907 9.69214 7.96014C9.69214 8.15125 9.84676 8.30671 10.0378 8.30682C10.229 8.30682 10.3845 8.15132 10.3845 7.96014C10.3845 7.769 10.229 7.61444 10.0378 7.61444ZM11.0769 7.61444C10.8857 7.61444 10.7303 7.769 10.7302 7.96014C10.7302 8.15132 10.8857 8.30682 11.0769 8.30682C11.2679 8.30659 11.4226 8.15118 11.4226 7.96014C11.4226 7.76914 11.2679 7.61467 11.0769 7.61444ZM12.115 7.61444C11.924 7.61463 11.7693 7.76911 11.7693 7.96014C11.7693 8.1512 11.924 8.30663 12.115 8.30682C12.3062 8.30682 12.4617 8.15132 12.4617 7.96014C12.4616 7.769 12.3061 7.61444 12.115 7.61444ZM5.88452 6.57733C5.69337 6.57733 5.53787 6.73189 5.53784 6.92303C5.53784 7.11421 5.69335 7.26971 5.88452 7.26971C6.07561 7.26962 6.23022 7.11415 6.23022 6.92303C6.23019 6.73195 6.07559 6.57743 5.88452 6.57733ZM6.92261 6.57733C6.73152 6.57742 6.57694 6.73194 6.5769 6.92303C6.5769 7.11416 6.7315 7.26963 6.92261 7.26971C7.11378 7.26971 7.26929 7.11421 7.26929 6.92303C7.26925 6.73189 7.11376 6.57733 6.92261 6.57733ZM7.96167 6.57733C7.77051 6.57733 7.61502 6.73189 7.61499 6.92303C7.61499 7.11421 7.77049 7.26971 7.96167 7.26971C8.15263 7.26946 8.30737 7.11405 8.30737 6.92303C8.30734 6.73205 8.15261 6.57759 7.96167 6.57733ZM8.99976 6.57733C8.8086 6.57733 8.65311 6.73189 8.65308 6.92303C8.65308 7.11421 8.80858 7.26971 8.99976 7.26971C9.19087 7.26964 9.34546 7.11417 9.34546 6.92303C9.34543 6.73193 9.19085 6.5774 8.99976 6.57733ZM10.0378 6.57733C9.84678 6.57744 9.69217 6.73196 9.69214 6.92303C9.69214 7.11414 9.84676 7.2696 10.0378 7.26971C10.229 7.26971 10.3845 7.11421 10.3845 6.92303C10.3845 6.73189 10.229 6.57733 10.0378 6.57733ZM11.0769 6.57733C10.8857 6.57733 10.7303 6.73189 10.7302 6.92303C10.7302 7.11421 10.8857 7.26971 11.0769 7.26971C11.2679 7.26948 11.4226 7.11407 11.4226 6.92303C11.4226 6.73203 11.2679 6.57756 11.0769 6.57733ZM12.115 6.57733C11.924 6.57752 11.7693 6.732 11.7693 6.92303C11.7693 7.11409 11.924 7.26952 12.115 7.26971C12.3062 7.26971 12.4617 7.11421 12.4617 6.92303C12.4616 6.73189 12.3061 6.57733 12.115 6.57733ZM5.88452 5.53827C5.69343 5.53827 5.53798 5.69291 5.53784 5.88397C5.53784 6.07515 5.69335 6.23065 5.88452 6.23065C6.07561 6.23055 6.23022 6.07509 6.23022 5.88397C6.23009 5.69298 6.07553 5.53837 5.88452 5.53827ZM6.92261 5.53827C6.73159 5.53835 6.57704 5.69297 6.5769 5.88397C6.5769 6.0751 6.7315 6.23057 6.92261 6.23065C7.11378 6.23065 7.26929 6.07515 7.26929 5.88397C7.26915 5.69291 7.1137 5.53827 6.92261 5.53827ZM7.96167 5.53827C7.77058 5.53827 7.61513 5.69291 7.61499 5.88397C7.61499 6.07515 7.77049 6.23065 7.96167 6.23065C8.15263 6.23039 8.30737 6.07499 8.30737 5.88397C8.30724 5.69307 8.15254 5.53853 7.96167 5.53827ZM8.99976 5.53827C8.80867 5.53827 8.65321 5.69291 8.65308 5.88397C8.65308 6.07515 8.80858 6.23065 8.99976 6.23065C9.19087 6.23058 9.34546 6.0751 9.34546 5.88397C9.34532 5.69296 9.19078 5.53834 8.99976 5.53827ZM10.0378 5.53827C9.84685 5.53838 9.69228 5.69298 9.69214 5.88397C9.69214 6.07508 9.84676 6.23054 10.0378 6.23065C10.229 6.23065 10.3845 6.07515 10.3845 5.88397C10.3844 5.69291 10.2289 5.53827 10.0378 5.53827ZM11.0769 5.53827C10.8858 5.53827 10.7304 5.69291 10.7302 5.88397C10.7302 6.07515 10.8857 6.23065 11.0769 6.23065C11.2679 6.23042 11.4226 6.07501 11.4226 5.88397C11.4225 5.69306 11.2678 5.5385 11.0769 5.53827ZM12.115 5.53827C11.9241 5.53846 11.7694 5.69303 11.7693 5.88397C11.7693 6.07503 11.924 6.23046 12.115 6.23065C12.3062 6.23065 12.4617 6.07515 12.4617 5.88397C12.4615 5.69291 12.3061 5.53827 12.115 5.53827Z" fill="#FAFAFA"/>
<path d="M18 12.8068H10.3848V5.19159H18V12.8068ZM11.0771 11.7678C10.8861 11.7678 10.7307 11.9225 10.7305 12.1135C10.7305 12.3046 10.886 12.4601 11.0771 12.4601C11.2681 12.4599 11.4229 12.3045 11.4229 12.1135C11.4226 11.9226 11.268 11.768 11.0771 11.7678ZM12.1152 11.7678C11.9244 11.768 11.7698 11.9226 11.7695 12.1135C11.7695 12.3045 11.9242 12.46 12.1152 12.4601C12.3064 12.4601 12.4619 12.3046 12.4619 12.1135C12.4617 11.9225 12.3063 11.7678 12.1152 11.7678ZM13.1543 11.7678C12.9633 11.7678 12.8079 11.9225 12.8076 12.1135C12.8076 12.3046 12.9631 12.4601 13.1543 12.4601C13.3453 12.46 13.5 12.3045 13.5 12.1135C13.4998 11.9226 13.3452 11.7679 13.1543 11.7678ZM14.1924 11.7678C14.0014 11.7678 13.8469 11.9225 13.8467 12.1135C13.8467 12.3046 14.0012 12.4601 14.1924 12.4601C14.3836 12.4601 14.5391 12.3046 14.5391 12.1135C14.5388 11.9225 14.3834 11.7678 14.1924 11.7678ZM15.2305 11.7678C15.0396 11.768 14.885 11.9226 14.8848 12.1135C14.8848 12.3045 15.0395 12.4599 15.2305 12.4601C15.4216 12.4601 15.5771 12.3046 15.5771 12.1135C15.5769 11.9225 15.4215 11.7678 15.2305 11.7678ZM16.2695 11.7678C16.0785 11.7678 15.9231 11.9225 15.9229 12.1135C15.9229 12.3046 16.0784 12.4601 16.2695 12.4601C16.4606 12.46 16.6152 12.3046 16.6152 12.1135C16.615 11.9226 16.4604 11.7679 16.2695 11.7678ZM17.3076 11.7678C17.1166 11.7678 16.9622 11.9225 16.9619 12.1135C16.9619 12.3046 17.1165 12.4601 17.3076 12.4601C17.4988 12.4601 17.6543 12.3046 17.6543 12.1135C17.6541 11.9225 17.4986 11.7678 17.3076 11.7678ZM11.0771 10.7307C10.8861 10.7307 10.7307 10.8854 10.7305 11.0764C10.7305 11.2675 10.886 11.423 11.0771 11.423C11.2681 11.4228 11.4229 11.2674 11.4229 11.0764C11.4226 10.8855 11.268 10.7309 11.0771 10.7307ZM12.1152 10.7307C11.9244 10.7308 11.7698 10.8855 11.7695 11.0764C11.7695 11.2674 11.9242 11.4228 12.1152 11.423C12.3064 11.423 12.4619 11.2675 12.4619 11.0764C12.4617 10.8854 12.3063 10.7307 12.1152 10.7307ZM13.1543 10.7307C12.9633 10.7307 12.8079 10.8854 12.8076 11.0764C12.8076 11.2675 12.9631 11.423 13.1543 11.423C13.3453 11.4229 13.5 11.2674 13.5 11.0764C13.4998 10.8855 13.3452 10.7308 13.1543 10.7307ZM14.1924 10.7307C14.0014 10.7307 13.8469 10.8854 13.8467 11.0764C13.8467 11.2675 14.0012 11.423 14.1924 11.423C14.3836 11.423 14.5391 11.2675 14.5391 11.0764C14.5388 10.8854 14.3834 10.7307 14.1924 10.7307ZM15.2305 10.7307C15.0396 10.7309 14.885 10.8855 14.8848 11.0764C14.8848 11.2674 15.0395 11.4228 15.2305 11.423C15.4216 11.423 15.5771 11.2675 15.5771 11.0764C15.5769 10.8854 15.4215 10.7307 15.2305 10.7307ZM16.2695 10.7307C16.0785 10.7307 15.9231 10.8854 15.9229 11.0764C15.9229 11.2675 16.0784 11.423 16.2695 11.423C16.4606 11.4229 16.6152 11.2675 16.6152 11.0764C16.615 10.8855 16.4604 10.7308 16.2695 10.7307ZM17.3076 10.7307C17.1166 10.7307 16.9622 10.8854 16.9619 11.0764C16.9619 11.2675 17.1165 11.423 17.3076 11.423C17.4988 11.423 17.6543 11.2675 17.6543 11.0764C17.6541 10.8854 17.4986 10.7307 17.3076 10.7307ZM11.0771 9.69159C10.886 9.69159 10.7305 9.84709 10.7305 10.0383C10.7306 10.2293 10.8861 10.384 11.0771 10.384C11.268 10.3837 11.4227 10.2291 11.4229 10.0383C11.4229 9.84724 11.2681 9.69182 11.0771 9.69159ZM12.1152 9.69159C11.9242 9.69178 11.7695 9.84721 11.7695 10.0383C11.7697 10.2292 11.9243 10.3838 12.1152 10.384C12.3063 10.384 12.4617 10.2293 12.4619 10.0383C12.4619 9.84709 12.3064 9.69159 12.1152 9.69159ZM13.1543 9.69159C12.9631 9.69159 12.8076 9.84709 12.8076 10.0383C12.8078 10.2293 12.9632 10.384 13.1543 10.384C13.3452 10.3838 13.4998 10.2292 13.5 10.0383C13.5 9.84719 13.3453 9.69174 13.1543 9.69159ZM14.1924 9.69159C14.0012 9.69162 13.8467 9.84711 13.8467 10.0383C13.8469 10.2293 14.0013 10.3839 14.1924 10.384C14.3834 10.384 14.5389 10.2293 14.5391 10.0383C14.5391 9.84709 14.3836 9.69159 14.1924 9.69159ZM15.2305 9.69159C15.0395 9.69181 14.8848 9.84723 14.8848 10.0383C14.8849 10.2292 15.0396 10.3838 15.2305 10.384C15.4215 10.384 15.577 10.2293 15.5771 10.0383C15.5771 9.84709 15.4216 9.69159 15.2305 9.69159ZM16.2695 9.69159C16.0784 9.69159 15.9229 9.84709 15.9229 10.0383C15.923 10.2293 16.0785 10.384 16.2695 10.384C16.4605 10.3838 16.6151 10.2292 16.6152 10.0383C16.6152 9.84717 16.4606 9.69172 16.2695 9.69159ZM17.3076 9.69159C17.1165 9.69165 16.9619 9.84713 16.9619 10.0383C16.9621 10.2293 17.1166 10.3839 17.3076 10.384C17.4987 10.384 17.6541 10.2293 17.6543 10.0383C17.6543 9.84709 17.4988 9.69159 17.3076 9.69159ZM11.0771 8.65253C10.886 8.65253 10.7305 8.80803 10.7305 8.99921C10.7305 9.19032 10.886 9.34491 11.0771 9.34491C11.2681 9.34468 11.4228 9.19018 11.4229 8.99921C11.4229 8.80817 11.2681 8.65276 11.0771 8.65253ZM12.1152 8.65253C11.9242 8.65272 11.7695 8.80815 11.7695 8.99921C11.7696 9.1902 11.9243 9.34472 12.1152 9.34491C12.3064 9.34491 12.4618 9.19032 12.4619 8.99921C12.4619 8.80803 12.3064 8.65253 12.1152 8.65253ZM13.1543 8.65253C12.9631 8.65253 12.8076 8.80803 12.8076 8.99921C12.8077 9.19032 12.9632 9.34491 13.1543 9.34491C13.3453 9.34476 13.4999 9.19023 13.5 8.99921C13.5 8.80812 13.3453 8.65268 13.1543 8.65253ZM14.1924 8.65253C14.0012 8.65256 13.8467 8.80805 13.8467 8.99921C13.8468 9.1903 14.0013 9.34488 14.1924 9.34491C14.3835 9.34491 14.539 9.19032 14.5391 8.99921C14.5391 8.80803 14.3836 8.65253 14.1924 8.65253ZM15.2305 8.65253C15.0395 8.65274 14.8848 8.80816 14.8848 8.99921C14.8848 9.19019 15.0395 9.34469 15.2305 9.34491C15.4216 9.34491 15.5771 9.19032 15.5771 8.99921C15.5771 8.80803 15.4216 8.65253 15.2305 8.65253ZM16.2695 8.65253C16.0784 8.65253 15.9229 8.80803 15.9229 8.99921C15.9229 9.19032 16.0784 9.34491 16.2695 9.34491C16.4606 9.34478 16.6152 9.19024 16.6152 8.99921C16.6152 8.80811 16.4606 8.65265 16.2695 8.65253ZM17.3076 8.65253C17.1165 8.65259 16.9619 8.80807 16.9619 8.99921C16.962 9.19028 17.1165 9.34485 17.3076 9.34491C17.4987 9.34491 17.6542 9.19032 17.6543 8.99921C17.6543 8.80803 17.4988 8.65253 17.3076 8.65253ZM11.0771 7.61444C10.886 7.61444 10.7305 7.769 10.7305 7.96014C10.7305 8.15132 10.886 8.30682 11.0771 8.30682C11.2681 8.30659 11.4229 8.15118 11.4229 7.96014C11.4228 7.76914 11.2681 7.61467 11.0771 7.61444ZM12.1152 7.61444C11.9242 7.61463 11.7696 7.76911 11.7695 7.96014C11.7695 8.1512 11.9242 8.30663 12.1152 8.30682C12.3064 8.30682 12.4619 8.15132 12.4619 7.96014C12.4619 7.769 12.3064 7.61444 12.1152 7.61444ZM13.1543 7.61444C12.9631 7.61444 12.8076 7.769 12.8076 7.96014C12.8076 8.15132 12.9631 8.30682 13.1543 8.30682C13.3453 8.30667 13.5 8.15123 13.5 7.96014C13.5 7.76909 13.3453 7.61459 13.1543 7.61444ZM14.1924 7.61444C14.0013 7.61447 13.8467 7.76902 13.8467 7.96014C13.8467 8.1513 14.0012 8.30679 14.1924 8.30682C14.3836 8.30682 14.5391 8.15132 14.5391 7.96014C14.539 7.769 14.3835 7.61444 14.1924 7.61444ZM15.2305 7.61444C15.0395 7.61466 14.8848 7.76913 14.8848 7.96014C14.8848 8.15119 15.0395 8.30661 15.2305 8.30682C15.4216 8.30682 15.5771 8.15132 15.5771 7.96014C15.5771 7.769 15.4216 7.61444 15.2305 7.61444ZM16.2695 7.61444C16.0784 7.61444 15.9229 7.769 15.9229 7.96014C15.9229 8.15132 16.0784 8.30682 16.2695 8.30682C16.4606 8.3067 16.6152 8.15124 16.6152 7.96014C16.6152 7.76907 16.4606 7.61457 16.2695 7.61444ZM17.3076 7.61444C17.1165 7.6145 16.9619 7.76903 16.9619 7.96014C16.9619 8.15128 17.1165 8.30677 17.3076 8.30682C17.4988 8.30682 17.6543 8.15132 17.6543 7.96014C17.6543 7.769 17.4988 7.61444 17.3076 7.61444ZM11.0771 6.57733C10.886 6.57733 10.7305 6.73189 10.7305 6.92303C10.7305 7.11421 10.886 7.26971 11.0771 7.26971C11.2681 7.26948 11.4229 7.11407 11.4229 6.92303C11.4228 6.73203 11.2681 6.57756 11.0771 6.57733ZM12.1152 6.57733C11.9242 6.57752 11.7696 6.732 11.7695 6.92303C11.7695 7.11409 11.9242 7.26952 12.1152 7.26971C12.3064 7.26971 12.4619 7.11421 12.4619 6.92303C12.4619 6.73189 12.3064 6.57733 12.1152 6.57733ZM13.1543 6.57733C12.9631 6.57733 12.8076 6.73189 12.8076 6.92303C12.8076 7.11421 12.9631 7.26971 13.1543 7.26971C13.3453 7.26956 13.5 7.11412 13.5 6.92303C13.5 6.73198 13.3453 6.57748 13.1543 6.57733ZM14.1924 6.57733C14.0013 6.57736 13.8467 6.73191 13.8467 6.92303C13.8467 7.11419 14.0012 7.26968 14.1924 7.26971C14.3836 7.26971 14.5391 7.11421 14.5391 6.92303C14.539 6.73189 14.3835 6.57733 14.1924 6.57733ZM15.2305 6.57733C15.0395 6.57755 14.8848 6.73202 14.8848 6.92303C14.8848 7.11408 15.0395 7.2695 15.2305 7.26971C15.4216 7.26971 15.5771 7.11421 15.5771 6.92303C15.5771 6.73189 15.4216 6.57733 15.2305 6.57733ZM16.2695 6.57733C16.0784 6.57733 15.9229 6.73189 15.9229 6.92303C15.9229 7.11421 16.0784 7.26971 16.2695 7.26971C16.4606 7.26959 16.6152 7.11413 16.6152 6.92303C16.6152 6.73196 16.4606 6.57746 16.2695 6.57733ZM17.3076 6.57733C17.1165 6.57739 16.9619 6.73192 16.9619 6.92303C16.9619 7.11417 17.1165 7.26966 17.3076 7.26971C17.4988 7.26971 17.6543 7.11421 17.6543 6.92303C17.6543 6.73189 17.4988 6.57733 17.3076 6.57733ZM11.0771 5.53827C10.8861 5.53827 10.7306 5.69291 10.7305 5.88397C10.7305 6.07515 10.886 6.23065 11.0771 6.23065C11.2681 6.23042 11.4229 6.07501 11.4229 5.88397C11.4227 5.69306 11.268 5.5385 11.0771 5.53827ZM12.1152 5.53827C11.9243 5.53846 11.7697 5.69303 11.7695 5.88397C11.7695 6.07503 11.9242 6.23046 12.1152 6.23065C12.3064 6.23065 12.4619 6.07515 12.4619 5.88397C12.4618 5.69291 12.3063 5.53827 12.1152 5.53827ZM13.1543 5.53827C12.9632 5.53827 12.8078 5.69291 12.8076 5.88397C12.8076 6.07515 12.9631 6.23065 13.1543 6.23065C13.3453 6.2305 13.5 6.07505 13.5 5.88397C13.4999 5.69301 13.3453 5.53842 13.1543 5.53827ZM14.1924 5.53827C14.0013 5.5383 13.8468 5.69293 13.8467 5.88397C13.8467 6.07513 14.0012 6.23062 14.1924 6.23065C14.3836 6.23065 14.5391 6.07515 14.5391 5.88397C14.5389 5.69291 14.3835 5.53827 14.1924 5.53827ZM15.2305 5.53827C15.0396 5.53849 14.8849 5.69305 14.8848 5.88397C14.8848 6.07501 15.0395 6.23043 15.2305 6.23065C15.4216 6.23065 15.5771 6.07515 15.5771 5.88397C15.577 5.69291 15.4216 5.53827 15.2305 5.53827ZM16.2695 5.53827C16.0784 5.53827 15.923 5.69291 15.9229 5.88397C15.9229 6.07515 16.0784 6.23065 16.2695 6.23065C16.4606 6.23053 16.6152 6.07507 16.6152 5.88397C16.6151 5.69299 16.4605 5.53839 16.2695 5.53827ZM17.3076 5.53827C17.1166 5.53833 16.9621 5.69295 16.9619 5.88397C16.9619 6.07511 17.1165 6.23059 17.3076 6.23065C17.4988 6.23065 17.6543 6.07515 17.6543 5.88397C17.6542 5.69291 17.4987 5.53827 17.3076 5.53827Z" fill="#FAFAFA"/>
<path d="M7.61523 12.8068H0V5.19159H7.61523V12.8068ZM0.692383 11.7678C0.501385 11.7678 0.346923 11.9225 0.34668 12.1135C0.34668 12.3046 0.501235 12.4601 0.692383 12.4601C0.883558 12.4601 1.03906 12.3046 1.03906 12.1135C1.03882 11.9225 0.883408 11.7678 0.692383 11.7678ZM1.73047 11.7678C1.53963 11.768 1.38501 11.9226 1.38477 12.1135C1.38477 12.3045 1.53948 12.4599 1.73047 12.4601C1.92164 12.4601 2.07715 12.3046 2.07715 12.1135C2.07691 11.9225 1.92149 11.7678 1.73047 11.7678ZM2.76953 11.7678C2.57851 11.7678 2.42309 11.9225 2.42285 12.1135C2.42285 12.3046 2.57836 12.4601 2.76953 12.4601C2.9606 12.46 3.11523 12.3046 3.11523 12.1135C3.11499 11.9226 2.96045 11.7679 2.76953 11.7678ZM3.80762 11.7678C3.61664 11.7678 3.46216 11.9225 3.46191 12.1135C3.46191 12.3046 3.61649 12.4601 3.80762 12.4601C3.99879 12.4601 4.1543 12.3046 4.1543 12.1135C4.15405 11.9225 3.99864 11.7678 3.80762 11.7678ZM4.8457 11.7678C4.65489 11.768 4.50024 11.9226 4.5 12.1135C4.5 12.3045 4.65473 12.4599 4.8457 12.4601C5.03688 12.4601 5.19238 12.3046 5.19238 12.1135C5.19214 11.9225 5.03673 11.7678 4.8457 11.7678ZM5.88477 11.7678C5.69374 11.7678 5.53833 11.9225 5.53809 12.1135C5.53809 12.3046 5.69359 12.4601 5.88477 12.4601C6.07586 12.46 6.23047 12.3046 6.23047 12.1135C6.23023 11.9226 6.07571 11.7679 5.88477 11.7678ZM6.92285 11.7678C6.7319 11.7678 6.57739 11.9225 6.57715 12.1135C6.57715 12.3046 6.73175 12.4601 6.92285 12.4601C7.11403 12.4601 7.26953 12.3046 7.26953 12.1135C7.26929 11.9225 7.11388 11.7678 6.92285 11.7678ZM0.692383 10.7307C0.501385 10.7307 0.346923 10.8854 0.34668 11.0764C0.34668 11.2675 0.501235 11.423 0.692383 11.423C0.883558 11.423 1.03906 11.2675 1.03906 11.0764C1.03882 10.8854 0.883408 10.7307 0.692383 10.7307ZM1.73047 10.7307C1.53963 10.7309 1.38501 10.8855 1.38477 11.0764C1.38477 11.2674 1.53948 11.4228 1.73047 11.423C1.92164 11.423 2.07715 11.2675 2.07715 11.0764C2.07691 10.8854 1.92149 10.7307 1.73047 10.7307ZM2.76953 10.7307C2.57851 10.7307 2.42309 10.8854 2.42285 11.0764C2.42285 11.2675 2.57836 11.423 2.76953 11.423C2.9606 11.4229 3.11523 11.2675 3.11523 11.0764C3.11499 10.8855 2.96045 10.7308 2.76953 10.7307ZM3.80762 10.7307C3.61664 10.7307 3.46216 10.8854 3.46191 11.0764C3.46191 11.2675 3.61649 11.423 3.80762 11.423C3.99879 11.423 4.1543 11.2675 4.1543 11.0764C4.15405 10.8854 3.99864 10.7307 3.80762 10.7307ZM4.8457 10.7307C4.65489 10.7309 4.50024 10.8855 4.5 11.0764C4.5 11.2674 4.65473 11.4228 4.8457 11.423C5.03688 11.423 5.19238 11.2675 5.19238 11.0764C5.19214 10.8854 5.03673 10.7307 4.8457 10.7307ZM5.88477 10.7307C5.69374 10.7307 5.53833 10.8854 5.53809 11.0764C5.53809 11.2675 5.69359 11.423 5.88477 11.423C6.07586 11.4229 6.23047 11.2675 6.23047 11.0764C6.23023 10.8854 6.07571 10.7308 5.88477 10.7307ZM6.92285 10.7307C6.7319 10.7307 6.57739 10.8854 6.57715 11.0764C6.57715 11.2675 6.73175 11.4229 6.92285 11.423C7.11403 11.423 7.26953 11.2675 7.26953 11.0764C7.26929 10.8854 7.11388 10.7307 6.92285 10.7307ZM0.692383 9.69159C0.501235 9.69162 0.34668 9.84711 0.34668 10.0383C0.346858 10.2293 0.501345 10.3839 0.692383 10.384C0.883448 10.384 1.03888 10.2293 1.03906 10.0383C1.03906 9.84709 0.883558 9.69159 0.692383 9.69159ZM1.73047 9.69159C1.53948 9.69181 1.38477 9.84723 1.38477 10.0383C1.38494 10.2292 1.53959 10.3838 1.73047 10.384C1.92153 10.384 2.07697 10.2293 2.07715 10.0383C2.07715 9.84709 1.92164 9.69159 1.73047 9.69159ZM2.76953 9.69159C2.57836 9.69159 2.42285 9.84709 2.42285 10.0383C2.42303 10.2293 2.57847 10.384 2.76953 10.384C2.96049 10.3838 3.11506 10.2292 3.11523 10.0383C3.11523 9.84717 2.9606 9.69172 2.76953 9.69159ZM3.80762 9.69159C3.61649 9.69165 3.46191 9.84713 3.46191 10.0383C3.46209 10.2293 3.6166 10.3839 3.80762 10.384C3.99868 10.384 4.15412 10.2293 4.1543 10.0383C4.1543 9.84709 3.99879 9.69159 3.80762 9.69159ZM4.8457 9.69159C4.65473 9.69183 4.5 9.84724 4.5 10.0383C4.50018 10.2291 4.65484 10.3837 4.8457 10.384C5.03677 10.384 5.1922 10.2293 5.19238 10.0383C5.19238 9.84709 5.03688 9.69159 4.8457 9.69159ZM5.88477 9.69159C5.69359 9.69159 5.53809 9.84709 5.53809 10.0383C5.53826 10.2293 5.6937 10.384 5.88477 10.384C6.07575 10.3839 6.23029 10.2292 6.23047 10.0383C6.23047 9.84715 6.07586 9.69169 5.88477 9.69159ZM6.92285 9.69159C6.73175 9.69167 6.57715 9.84715 6.57715 10.0383C6.57733 10.2292 6.73186 10.3839 6.92285 10.384C7.11392 10.384 7.26935 10.2293 7.26953 10.0383C7.26953 9.84709 7.11403 9.69159 6.92285 9.69159ZM0.692383 8.65253C0.501235 8.65256 0.34668 8.80805 0.34668 8.99921C0.346753 9.1903 0.50128 9.34488 0.692383 9.34491C0.883513 9.34491 1.03899 9.19032 1.03906 8.99921C1.03906 8.80803 0.883558 8.65253 0.692383 8.65253ZM1.73047 8.65253C1.53948 8.65274 1.38477 8.80816 1.38477 8.99921C1.38484 9.19019 1.53952 9.34469 1.73047 9.34491C1.9216 9.34491 2.07708 9.19032 2.07715 8.99921C2.07715 8.80803 1.92164 8.65253 1.73047 8.65253ZM2.76953 8.65253C2.57836 8.65253 2.42285 8.80803 2.42285 8.99921C2.42292 9.19032 2.5784 9.34491 2.76953 9.34491C2.96055 9.34478 3.11516 9.19024 3.11523 8.99921C3.11523 8.80811 2.9606 8.65265 2.76953 8.65253ZM3.80762 8.65253C3.61649 8.65259 3.46191 8.80807 3.46191 8.99921C3.46199 9.19028 3.61654 9.34485 3.80762 9.34491C3.99875 9.34491 4.15422 9.19032 4.1543 8.99921C4.1543 8.80803 3.99879 8.65253 3.80762 8.65253ZM4.8457 8.65253C4.65473 8.65277 4.5 8.80818 4.5 8.99921C4.50007 9.19017 4.65478 9.34467 4.8457 9.34491C5.03683 9.34491 5.19231 9.19032 5.19238 8.99921C5.19238 8.80803 5.03688 8.65253 4.8457 8.65253ZM5.88477 8.65253C5.69359 8.65253 5.53809 8.80803 5.53809 8.99921C5.53816 9.19032 5.69364 9.34491 5.88477 9.34491C6.07581 9.34481 6.2304 9.19026 6.23047 8.99921C6.23047 8.80809 6.07586 8.65263 5.88477 8.65253ZM6.92285 8.65253C6.73175 8.65261 6.57715 8.80808 6.57715 8.99921C6.57722 9.19027 6.73179 9.34482 6.92285 9.34491C7.11398 9.34491 7.26946 9.19032 7.26953 8.99921C7.26953 8.80803 7.11403 8.65253 6.92285 8.65253ZM0.692383 7.61444C0.501255 7.61447 0.346712 7.76902 0.34668 7.96014C0.34668 8.1513 0.501235 8.30679 0.692383 8.30682C0.883558 8.30682 1.03906 8.15132 1.03906 7.96014C1.03903 7.769 0.883538 7.61444 0.692383 7.61444ZM1.73047 7.61444C1.5395 7.61466 1.3848 7.76913 1.38477 7.96014C1.38477 8.15119 1.53948 8.30661 1.73047 8.30682C1.92164 8.30682 2.07715 8.15132 2.07715 7.96014C2.07712 7.769 1.92162 7.61444 1.73047 7.61444ZM2.76953 7.61444C2.57838 7.61444 2.42288 7.769 2.42285 7.96014C2.42285 8.15132 2.57836 8.30682 2.76953 8.30682C2.9606 8.3067 3.11523 8.15124 3.11523 7.96014C3.1152 7.76907 2.96058 7.61457 2.76953 7.61444ZM3.80762 7.61444C3.61651 7.6145 3.46195 7.76903 3.46191 7.96014C3.46191 8.15128 3.61649 8.30677 3.80762 8.30682C3.99879 8.30682 4.1543 8.15132 4.1543 7.96014C4.15426 7.769 3.99877 7.61444 3.80762 7.61444ZM4.8457 7.61444C4.65476 7.61468 4.50003 7.76915 4.5 7.96014C4.5 8.15117 4.65473 8.30658 4.8457 8.30682C5.03688 8.30682 5.19238 8.15132 5.19238 7.96014C5.19235 7.769 5.03686 7.61444 4.8457 7.61444ZM5.88477 7.61444C5.69361 7.61444 5.53812 7.769 5.53809 7.96014C5.53809 8.15132 5.69359 8.30682 5.88477 8.30682C6.07586 8.30672 6.23047 8.15126 6.23047 7.96014C6.23044 7.76906 6.07584 7.61454 5.88477 7.61444ZM6.92285 7.61444C6.73177 7.61453 6.57718 7.76905 6.57715 7.96014C6.57715 8.15127 6.73175 8.30674 6.92285 8.30682C7.11403 8.30682 7.26953 8.15132 7.26953 7.96014C7.2695 7.769 7.11401 7.61444 6.92285 7.61444ZM0.692383 6.57733C0.501255 6.57736 0.346712 6.73191 0.34668 6.92303C0.34668 7.11419 0.501235 7.26968 0.692383 7.26971C0.883558 7.26971 1.03906 7.11421 1.03906 6.92303C1.03903 6.73189 0.883538 6.57733 0.692383 6.57733ZM1.73047 6.57733C1.5395 6.57755 1.3848 6.73202 1.38477 6.92303C1.38477 7.11408 1.53948 7.2695 1.73047 7.26971C1.92164 7.26971 2.07715 7.11421 2.07715 6.92303C2.07712 6.73189 1.92162 6.57733 1.73047 6.57733ZM2.76953 6.57733C2.57838 6.57733 2.42288 6.73189 2.42285 6.92303C2.42285 7.11421 2.57836 7.26971 2.76953 7.26971C2.9606 7.26959 3.11523 7.11413 3.11523 6.92303C3.1152 6.73196 2.96058 6.57746 2.76953 6.57733ZM3.80762 6.57733C3.61651 6.57739 3.46195 6.73192 3.46191 6.92303C3.46191 7.11417 3.61649 7.26966 3.80762 7.26971C3.99879 7.26971 4.1543 7.11421 4.1543 6.92303C4.15426 6.73189 3.99877 6.57733 3.80762 6.57733ZM4.8457 6.57733C4.65476 6.57758 4.50003 6.73204 4.5 6.92303C4.5 7.11406 4.65473 7.26947 4.8457 7.26971C5.03688 7.26971 5.19238 7.11421 5.19238 6.92303C5.19235 6.73189 5.03686 6.57733 4.8457 6.57733ZM5.88477 6.57733C5.69361 6.57733 5.53812 6.73189 5.53809 6.92303C5.53809 7.11421 5.69359 7.26971 5.88477 7.26971C6.07586 7.26962 6.23047 7.11415 6.23047 6.92303C6.23044 6.73195 6.07584 6.57743 5.88477 6.57733ZM6.92285 6.57733C6.73177 6.57742 6.57718 6.73194 6.57715 6.92303C6.57715 7.11416 6.73175 7.26963 6.92285 7.26971C7.11403 7.26971 7.26953 7.11421 7.26953 6.92303C7.2695 6.73189 7.11401 6.57733 6.92285 6.57733ZM0.692383 5.53827C0.50132 5.5383 0.346818 5.69293 0.34668 5.88397C0.34668 6.07513 0.501235 6.23062 0.692383 6.23065C0.883558 6.23065 1.03906 6.07515 1.03906 5.88397C1.03892 5.69291 0.883473 5.53827 0.692383 5.53827ZM1.73047 5.53827C1.53956 5.53849 1.3849 5.69305 1.38477 5.88397C1.38477 6.07501 1.53948 6.23044 1.73047 6.23065C1.92164 6.23065 2.07715 6.07515 2.07715 5.88397C2.07701 5.69291 1.92156 5.53827 1.73047 5.53827ZM2.76953 5.53827C2.57844 5.53827 2.42299 5.69291 2.42285 5.88397C2.42285 6.07515 2.57836 6.23065 2.76953 6.23065C2.9606 6.23053 3.11523 6.07507 3.11523 5.88397C3.1151 5.69299 2.96051 5.53839 2.76953 5.53827ZM3.80762 5.53827C3.61658 5.53833 3.46205 5.69295 3.46191 5.88397C3.46191 6.07511 3.61649 6.23059 3.80762 6.23065C3.99879 6.23065 4.1543 6.07515 4.1543 5.88397C4.15416 5.69291 3.99871 5.53827 3.80762 5.53827ZM4.8457 5.53827C4.65482 5.53851 4.50014 5.69306 4.5 5.88397C4.5 6.075 4.65473 6.23041 4.8457 6.23065C5.03688 6.23065 5.19238 6.07515 5.19238 5.88397C5.19224 5.69291 5.03679 5.53827 4.8457 5.53827ZM5.88477 5.53827C5.69368 5.53827 5.53822 5.69291 5.53809 5.88397C5.53809 6.07515 5.69359 6.23065 5.88477 6.23065C6.07586 6.23055 6.23047 6.07509 6.23047 5.88397C6.23033 5.69298 6.07577 5.53837 5.88477 5.53827ZM6.92285 5.53827C6.73183 5.53835 6.57729 5.69297 6.57715 5.88397C6.57715 6.0751 6.73175 6.23057 6.92285 6.23065C7.11403 6.23065 7.26953 6.07515 7.26953 5.88397C7.26939 5.69291 7.11394 5.53827 6.92285 5.53827Z" fill="#FAFAFA"/>
<path d="M12.8074 7.61523H5.19214V0H12.8074V7.61523ZM5.88452 6.57812C5.69337 6.57812 5.53787 6.73268 5.53784 6.92383C5.53784 7.115 5.69335 7.27051 5.88452 7.27051C6.07561 7.27041 6.23022 7.11494 6.23022 6.92383C6.23019 6.73274 6.07559 6.57822 5.88452 6.57812ZM6.92261 6.57812C6.73152 6.57821 6.57694 6.73273 6.5769 6.92383C6.5769 7.11495 6.7315 7.27042 6.92261 7.27051C7.11378 7.27051 7.26929 7.115 7.26929 6.92383C7.26925 6.73268 7.11376 6.57812 6.92261 6.57812ZM7.96167 6.57812C7.77051 6.57812 7.61502 6.73268 7.61499 6.92383C7.61499 7.115 7.77049 7.27051 7.96167 7.27051C8.15263 7.27025 8.30737 7.11484 8.30737 6.92383C8.30734 6.73284 8.15261 6.57838 7.96167 6.57812ZM8.99976 6.57812C8.8086 6.57812 8.65311 6.73268 8.65308 6.92383C8.65308 7.115 8.80858 7.27051 8.99976 7.27051C9.19087 7.27043 9.34546 7.11496 9.34546 6.92383C9.34543 6.73273 9.19085 6.5782 8.99976 6.57812ZM10.0378 6.57812C9.84678 6.57824 9.69217 6.73275 9.69214 6.92383C9.69214 7.11493 9.84676 7.2704 10.0378 7.27051C10.229 7.27051 10.3845 7.115 10.3845 6.92383C10.3845 6.73268 10.229 6.57812 10.0378 6.57812ZM11.0769 6.57812C10.8857 6.57812 10.7303 6.73268 10.7302 6.92383C10.7302 7.115 10.8857 7.27051 11.0769 7.27051C11.2679 7.27028 11.4226 7.11486 11.4226 6.92383C11.4226 6.73282 11.2679 6.57836 11.0769 6.57812ZM12.115 6.57812C11.924 6.57832 11.7693 6.7328 11.7693 6.92383C11.7693 7.11489 11.924 7.27032 12.115 7.27051C12.3062 7.27051 12.4617 7.115 12.4617 6.92383C12.4616 6.73268 12.3061 6.57812 12.115 6.57812ZM5.88452 5.53906C5.69343 5.53906 5.53798 5.69371 5.53784 5.88477C5.53784 6.07594 5.69335 6.23145 5.88452 6.23145C6.07561 6.23135 6.23022 6.07588 6.23022 5.88477C6.23009 5.69377 6.07553 5.53916 5.88452 5.53906ZM6.92261 5.53906C6.73159 5.53915 6.57704 5.69376 6.5769 5.88477C6.5769 6.07589 6.7315 6.23136 6.92261 6.23145C7.11378 6.23145 7.26929 6.07594 7.26929 5.88477C7.26915 5.69371 7.1137 5.53906 6.92261 5.53906ZM7.96167 5.53906C7.77058 5.53906 7.61513 5.69371 7.61499 5.88477C7.61499 6.07594 7.77049 6.23145 7.96167 6.23145C8.15263 6.23119 8.30737 6.07578 8.30737 5.88477C8.30724 5.69387 8.15254 5.53932 7.96167 5.53906ZM8.99976 5.53906C8.80867 5.53906 8.65321 5.69371 8.65308 5.88477C8.65308 6.07594 8.80858 6.23145 8.99976 6.23145C9.19087 6.23137 9.34546 6.0759 9.34546 5.88477C9.34532 5.69375 9.19078 5.53914 8.99976 5.53906ZM10.0378 5.53906C9.84685 5.53917 9.69228 5.69378 9.69214 5.88477C9.69214 6.07587 9.84676 6.23133 10.0378 6.23145C10.229 6.23145 10.3845 6.07594 10.3845 5.88477C10.3844 5.69371 10.2289 5.53906 10.0378 5.53906ZM11.0769 5.53906C10.8858 5.53906 10.7304 5.69371 10.7302 5.88477C10.7302 6.07594 10.8857 6.23145 11.0769 6.23145C11.2679 6.23121 11.4226 6.0758 11.4226 5.88477C11.4225 5.69385 11.2678 5.53929 11.0769 5.53906ZM12.115 5.53906C11.9241 5.53925 11.7694 5.69383 11.7693 5.88477C11.7693 6.07582 11.924 6.23125 12.115 6.23145C12.3062 6.23145 12.4617 6.07594 12.4617 5.88477C12.4615 5.69371 12.3061 5.53906 12.115 5.53906ZM5.88452 4.5C5.6935 4.5 5.53808 4.65473 5.53784 4.8457C5.53784 5.03688 5.69335 5.19238 5.88452 5.19238C6.07561 5.19228 6.23022 5.03682 6.23022 4.8457C6.22998 4.6548 6.07546 4.5001 5.88452 4.5ZM6.92261 4.5C6.73165 4.50009 6.57715 4.65479 6.5769 4.8457C6.5769 5.03683 6.7315 5.1923 6.92261 5.19238C7.11378 5.19238 7.26929 5.03688 7.26929 4.8457C7.26904 4.65473 7.11363 4.5 6.92261 4.5ZM7.96167 4.5C7.77064 4.5 7.61523 4.65473 7.61499 4.8457C7.61499 5.03688 7.77049 5.19238 7.96167 5.19238C8.15263 5.19213 8.30737 5.03672 8.30737 4.8457C8.30713 4.65489 8.15248 4.50026 7.96167 4.5ZM8.99976 4.5C8.80873 4.5 8.65332 4.65473 8.65308 4.8457C8.65308 5.03688 8.80858 5.19238 8.99976 5.19238C9.19087 5.19231 9.34546 5.03683 9.34546 4.8457C9.34522 4.65478 9.19072 4.50007 8.99976 4.5ZM10.0378 4.5C9.84691 4.50011 9.69238 4.6548 9.69214 4.8457C9.69214 5.03681 9.84676 5.19227 10.0378 5.19238C10.229 5.19238 10.3845 5.03688 10.3845 4.8457C10.3843 4.65473 10.2289 4.5 10.0378 4.5ZM11.0769 4.5C10.8859 4.5 10.7305 4.65473 10.7302 4.8457C10.7302 5.03688 10.8857 5.19238 11.0769 5.19238C11.2679 5.19215 11.4226 5.03674 11.4226 4.8457C11.4224 4.65488 11.2677 4.50023 11.0769 4.5ZM12.115 4.5C11.9241 4.50019 11.7695 4.65485 11.7693 4.8457C11.7693 5.03676 11.924 5.19219 12.115 5.19238C12.3062 5.19238 12.4617 5.03688 12.4617 4.8457C12.4614 4.65473 12.306 4.5 12.115 4.5ZM5.88452 3.46094C5.69335 3.46094 5.53784 3.61644 5.53784 3.80762C5.53802 3.99864 5.69346 4.15332 5.88452 4.15332C6.0755 4.15322 6.23005 3.99858 6.23022 3.80762C6.23022 3.6165 6.07561 3.46104 5.88452 3.46094ZM6.92261 3.46094C6.7315 3.46102 6.5769 3.61649 6.5769 3.80762C6.57708 3.99859 6.73161 4.15324 6.92261 4.15332C7.11367 4.15332 7.26911 3.99864 7.26929 3.80762C7.26929 3.61644 7.11378 3.46094 6.92261 3.46094ZM7.96167 3.46094C7.77049 3.46094 7.61499 3.61644 7.61499 3.80762C7.61517 3.99864 7.7706 4.15332 7.96167 4.15332C8.15252 4.15306 8.30719 3.99848 8.30737 3.80762C8.30737 3.6166 8.15263 3.46119 7.96167 3.46094ZM8.99976 3.46094C8.80858 3.46094 8.65308 3.61644 8.65308 3.80762C8.65325 3.99864 8.80869 4.15332 8.99976 4.15332C9.19076 4.15325 9.34528 3.9986 9.34546 3.80762C9.34546 3.61649 9.19087 3.46101 8.99976 3.46094ZM10.0378 3.46094C9.84676 3.46105 9.69214 3.61651 9.69214 3.80762C9.69232 3.99857 9.84687 4.15321 10.0378 4.15332C10.2289 4.15332 10.3843 3.99864 10.3845 3.80762C10.3845 3.61644 10.229 3.46094 10.0378 3.46094ZM11.0769 3.46094C10.8857 3.46094 10.7302 3.61644 10.7302 3.80762C10.7304 3.99864 10.8858 4.15332 11.0769 4.15332C11.2678 4.15309 11.4224 3.9985 11.4226 3.80762C11.4226 3.61658 11.2679 3.46117 11.0769 3.46094ZM12.115 3.46094C11.924 3.46113 11.7693 3.61656 11.7693 3.80762C11.7695 3.99852 11.9241 4.15313 12.115 4.15332C12.3061 4.15332 12.4615 3.99864 12.4617 3.80762C12.4617 3.61644 12.3062 3.46094 12.115 3.46094ZM5.88452 2.42188C5.69335 2.42188 5.53784 2.57738 5.53784 2.76855C5.53791 2.95967 5.69339 3.11426 5.88452 3.11426C6.07557 3.11416 6.23015 2.95961 6.23022 2.76855C6.23022 2.57744 6.07561 2.42197 5.88452 2.42188ZM6.92261 2.42188C6.7315 2.42196 6.5769 2.57743 6.5769 2.76855C6.57698 2.95962 6.73155 3.11417 6.92261 3.11426C7.11374 3.11426 7.26921 2.95967 7.26929 2.76855C7.26929 2.57738 7.11378 2.42188 6.92261 2.42188ZM7.96167 2.42188C7.77049 2.42188 7.61499 2.57738 7.61499 2.76855C7.61506 2.95967 7.77054 3.11426 7.96167 3.11426C8.15258 3.114 8.3073 2.95951 8.30737 2.76855C8.30737 2.57754 8.15263 2.42213 7.96167 2.42188ZM8.99976 2.42188C8.80858 2.42188 8.65308 2.57738 8.65308 2.76855C8.65315 2.95967 8.80863 3.11426 8.99976 3.11426C9.19082 3.11418 9.34539 2.95962 9.34546 2.76855C9.34546 2.57742 9.19087 2.42195 8.99976 2.42188ZM10.0378 2.42188C9.84676 2.42199 9.69214 2.57745 9.69214 2.76855C9.69221 2.9596 9.84681 3.11415 10.0378 3.11426C10.229 3.11426 10.3844 2.95967 10.3845 2.76855C10.3845 2.57738 10.229 2.42188 10.0378 2.42188ZM11.0769 2.42188C10.8857 2.42188 10.7302 2.57738 10.7302 2.76855C10.7303 2.95967 10.8858 3.11426 11.0769 3.11426C11.2678 3.11403 11.4225 2.95953 11.4226 2.76855C11.4226 2.57752 11.2679 2.42211 11.0769 2.42188ZM12.115 2.42188C11.924 2.42207 11.7693 2.5775 11.7693 2.76855C11.7694 2.95955 11.924 3.11407 12.115 3.11426C12.3061 3.11426 12.4616 2.95967 12.4617 2.76855C12.4617 2.57738 12.3062 2.42188 12.115 2.42188ZM5.88452 1.38477C5.69335 1.38477 5.53784 1.54027 5.53784 1.73145C5.53791 1.92256 5.69339 2.07715 5.88452 2.07715C6.07557 2.07705 6.23015 1.9225 6.23022 1.73145C6.23022 1.54033 6.07561 1.38486 5.88452 1.38477ZM6.92261 1.38477C6.7315 1.38485 6.5769 1.54032 6.5769 1.73145C6.57698 1.92251 6.73155 2.07706 6.92261 2.07715C7.11374 2.07715 7.26921 1.92256 7.26929 1.73145C7.26929 1.54027 7.11378 1.38477 6.92261 1.38477ZM7.96167 1.38477C7.77049 1.38477 7.61499 1.54027 7.61499 1.73145C7.61506 1.92256 7.77054 2.07715 7.96167 2.07715C8.15258 2.07689 8.3073 1.9224 8.30737 1.73145C8.30737 1.54043 8.15263 1.38502 7.96167 1.38477ZM8.99976 1.38477C8.80858 1.38477 8.65308 1.54027 8.65308 1.73145C8.65315 1.92256 8.80863 2.07715 8.99976 2.07715C9.19082 2.07708 9.34539 1.92251 9.34546 1.73145C9.34546 1.54031 9.19087 1.38484 8.99976 1.38477ZM10.0378 1.38477C9.84676 1.38488 9.69214 1.54034 9.69214 1.73145C9.69221 1.92249 9.84681 2.07704 10.0378 2.07715C10.229 2.07715 10.3844 1.92256 10.3845 1.73145C10.3845 1.54027 10.229 1.38477 10.0378 1.38477ZM11.0769 1.38477C10.8857 1.38477 10.7302 1.54027 10.7302 1.73145C10.7303 1.92256 10.8858 2.07715 11.0769 2.07715C11.2678 2.07692 11.4225 1.92242 11.4226 1.73145C11.4226 1.54041 11.2679 1.385 11.0769 1.38477ZM12.115 1.38477C11.924 1.38496 11.7693 1.54039 11.7693 1.73145C11.7694 1.92244 11.924 2.07696 12.115 2.07715C12.3061 2.07715 12.4616 1.92256 12.4617 1.73145C12.4617 1.54027 12.3062 1.38477 12.115 1.38477ZM5.88452 0.34668C5.69337 0.34668 5.53787 0.501235 5.53784 0.692383C5.53784 0.883558 5.69335 1.03906 5.88452 1.03906C6.07561 1.03896 6.23022 0.883497 6.23022 0.692383C6.23019 0.501296 6.07559 0.346779 5.88452 0.34668ZM6.92261 0.34668C6.73152 0.346765 6.57694 0.501288 6.5769 0.692383C6.5769 0.883506 6.7315 1.03898 6.92261 1.03906C7.11378 1.03906 7.26929 0.883558 7.26929 0.692383C7.26925 0.501235 7.11376 0.34668 6.92261 0.34668ZM7.96167 0.34668C7.77051 0.34668 7.61502 0.501235 7.61499 0.692383C7.61499 0.883558 7.77049 1.03906 7.96167 1.03906C8.15263 1.03881 8.30737 0.8834 8.30737 0.692383C8.30734 0.501394 8.15261 0.346937 7.96167 0.34668ZM8.99976 0.34668C8.8086 0.34668 8.65311 0.501235 8.65308 0.692383C8.65308 0.883558 8.80858 1.03906 8.99976 1.03906C9.19087 1.03899 9.34546 0.883513 9.34546 0.692383C9.34543 0.50128 9.19085 0.346753 8.99976 0.34668ZM10.0378 0.34668C9.84678 0.346791 9.69217 0.501304 9.69214 0.692383C9.69214 0.88349 9.84676 1.03895 10.0378 1.03906C10.229 1.03906 10.3845 0.883558 10.3845 0.692383C10.3845 0.501235 10.229 0.34668 10.0378 0.34668ZM11.0769 0.34668C10.8857 0.34668 10.7303 0.501235 10.7302 0.692383C10.7302 0.883558 10.8857 1.03906 11.0769 1.03906C11.2679 1.03883 11.4226 0.883416 11.4226 0.692383C11.4226 0.501378 11.2679 0.346911 11.0769 0.34668ZM12.115 0.34668C11.924 0.346871 11.7693 0.501353 11.7693 0.692383C11.7693 0.883441 11.924 1.03887 12.115 1.03906C12.3062 1.03906 12.4617 0.883558 12.4617 0.692383C12.4616 0.501235 12.3061 0.34668 12.115 0.34668Z" fill="#FAFAFA"/>
<path d="M18 7.61523H10.3848V0H18V7.61523ZM11.0771 6.57812C10.886 6.57812 10.7305 6.73268 10.7305 6.92383C10.7305 7.115 10.886 7.27051 11.0771 7.27051C11.2681 7.27028 11.4229 7.11486 11.4229 6.92383C11.4228 6.73282 11.2681 6.57836 11.0771 6.57812ZM12.1152 6.57812C11.9242 6.57832 11.7696 6.7328 11.7695 6.92383C11.7695 7.11489 11.9242 7.27032 12.1152 7.27051C12.3064 7.27051 12.4619 7.115 12.4619 6.92383C12.4619 6.73268 12.3064 6.57812 12.1152 6.57812ZM13.1543 6.57812C12.9631 6.57812 12.8076 6.73268 12.8076 6.92383C12.8076 7.115 12.9631 7.27051 13.1543 7.27051C13.3453 7.27036 13.5 7.11491 13.5 6.92383C13.5 6.73277 13.3453 6.57828 13.1543 6.57812ZM14.1924 6.57812C14.0013 6.57816 13.8467 6.7327 13.8467 6.92383C13.8467 7.11498 14.0012 7.27048 14.1924 7.27051C14.3836 7.27051 14.5391 7.115 14.5391 6.92383C14.539 6.73268 14.3835 6.57812 14.1924 6.57812ZM15.2305 6.57812C15.0395 6.57834 14.8848 6.73281 14.8848 6.92383C14.8848 7.11487 15.0395 7.27029 15.2305 7.27051C15.4216 7.27051 15.5771 7.115 15.5771 6.92383C15.5771 6.73268 15.4216 6.57812 15.2305 6.57812ZM16.2695 6.57812C16.0784 6.57812 15.9229 6.73268 15.9229 6.92383C15.9229 7.115 16.0784 7.27051 16.2695 7.27051C16.4606 7.27038 16.6152 7.11493 16.6152 6.92383C16.6152 6.73276 16.4606 6.57825 16.2695 6.57812ZM17.3076 6.57812C17.1165 6.57818 16.9619 6.73272 16.9619 6.92383C16.9619 7.11497 17.1165 7.27045 17.3076 7.27051C17.4988 7.27051 17.6543 7.115 17.6543 6.92383C17.6543 6.73268 17.4988 6.57812 17.3076 6.57812ZM11.0771 5.53906C10.8861 5.53906 10.7306 5.69371 10.7305 5.88477C10.7305 6.07594 10.886 6.23145 11.0771 6.23145C11.2681 6.23121 11.4229 6.0758 11.4229 5.88477C11.4227 5.69385 11.268 5.53929 11.0771 5.53906ZM12.1152 5.53906C11.9243 5.53925 11.7697 5.69383 11.7695 5.88477C11.7695 6.07582 11.9242 6.23125 12.1152 6.23145C12.3064 6.23145 12.4619 6.07594 12.4619 5.88477C12.4618 5.69371 12.3063 5.53906 12.1152 5.53906ZM13.1543 5.53906C12.9632 5.53906 12.8078 5.69371 12.8076 5.88477C12.8076 6.07594 12.9631 6.23145 13.1543 6.23145C13.3453 6.23129 13.5 6.07585 13.5 5.88477C13.4999 5.6938 13.3453 5.53921 13.1543 5.53906ZM14.1924 5.53906C14.0013 5.5391 13.8468 5.69373 13.8467 5.88477C13.8467 6.07592 14.0012 6.23141 14.1924 6.23145C14.3836 6.23145 14.5391 6.07594 14.5391 5.88477C14.5389 5.69371 14.3835 5.53906 14.1924 5.53906ZM15.2305 5.53906C15.0396 5.53928 14.8849 5.69384 14.8848 5.88477C14.8848 6.07581 15.0395 6.23123 15.2305 6.23145C15.4216 6.23145 15.5771 6.07594 15.5771 5.88477C15.577 5.69371 15.4216 5.53906 15.2305 5.53906ZM16.2695 5.53906C16.0784 5.53906 15.923 5.69371 15.9229 5.88477C15.9229 6.07594 16.0784 6.23145 16.2695 6.23145C16.4606 6.23132 16.6152 6.07586 16.6152 5.88477C16.6151 5.69379 16.4605 5.53919 16.2695 5.53906ZM17.3076 5.53906C17.1166 5.53912 16.9621 5.69374 16.9619 5.88477C16.9619 6.0759 17.1165 6.23139 17.3076 6.23145C17.4988 6.23145 17.6543 6.07594 17.6543 5.88477C17.6542 5.69371 17.4987 5.53906 17.3076 5.53906ZM11.0771 4.5C10.8861 4.5 10.7307 4.65473 10.7305 4.8457C10.7305 5.03688 10.886 5.19238 11.0771 5.19238C11.2681 5.19215 11.4229 5.03674 11.4229 4.8457C11.4226 4.65488 11.268 4.50023 11.0771 4.5ZM12.1152 4.5C11.9244 4.50019 11.7698 4.65485 11.7695 4.8457C11.7695 5.03676 11.9242 5.19219 12.1152 5.19238C12.3064 5.19238 12.4619 5.03688 12.4619 4.8457C12.4617 4.65473 12.3063 4.5 12.1152 4.5ZM13.1543 4.5C12.9633 4.5 12.8079 4.65473 12.8076 4.8457C12.8076 5.03688 12.9631 5.19238 13.1543 5.19238C13.3453 5.19223 13.5 5.03678 13.5 4.8457C13.4998 4.65483 13.3452 4.50015 13.1543 4.5ZM14.1924 4.5C14.0014 4.50003 13.8469 4.65476 13.8467 4.8457C13.8467 5.03686 14.0012 5.19235 14.1924 5.19238C14.3836 5.19238 14.5391 5.03688 14.5391 4.8457C14.5388 4.65473 14.3834 4.5 14.1924 4.5ZM15.2305 4.5C15.0396 4.50022 14.885 4.65487 14.8848 4.8457C14.8848 5.03674 15.0395 5.19217 15.2305 5.19238C15.4216 5.19238 15.5771 5.03688 15.5771 4.8457C15.5769 4.65473 15.4215 4.5 15.2305 4.5ZM16.2695 4.5C16.0785 4.5 15.9231 4.65473 15.9229 4.8457C15.9229 5.03688 16.0784 5.19238 16.2695 5.19238C16.4606 5.19226 16.6152 5.0368 16.6152 4.8457C16.615 4.65481 16.4604 4.50013 16.2695 4.5ZM17.3076 4.5C17.1166 4.50006 16.9622 4.65477 16.9619 4.8457C16.9619 5.03684 17.1165 5.19232 17.3076 5.19238C17.4988 5.19238 17.6543 5.03688 17.6543 4.8457C17.6541 4.65473 17.4986 4.5 17.3076 4.5ZM11.0771 3.46094C10.886 3.46094 10.7305 3.61644 10.7305 3.80762C10.7306 3.99864 10.8861 4.15332 11.0771 4.15332C11.268 4.15309 11.4227 3.9985 11.4229 3.80762C11.4229 3.61658 11.2681 3.46117 11.0771 3.46094ZM12.1152 3.46094C11.9242 3.46113 11.7695 3.61656 11.7695 3.80762C11.7697 3.99852 11.9243 4.15313 12.1152 4.15332C12.3063 4.15332 12.4617 3.99864 12.4619 3.80762C12.4619 3.61644 12.3064 3.46094 12.1152 3.46094ZM13.1543 3.46094C12.9631 3.46094 12.8076 3.61644 12.8076 3.80762C12.8078 3.99864 12.9632 4.15332 13.1543 4.15332C13.3452 4.15317 13.4998 3.99855 13.5 3.80762C13.5 3.61654 13.3453 3.46109 13.1543 3.46094ZM14.1924 3.46094C14.0012 3.46097 13.8467 3.61646 13.8467 3.80762C13.8469 3.99862 14.0013 4.15329 14.1924 4.15332C14.3834 4.15332 14.5389 3.99864 14.5391 3.80762C14.5391 3.61644 14.3836 3.46094 14.1924 3.46094ZM15.2305 3.46094C15.0395 3.46115 14.8848 3.61658 14.8848 3.80762C14.8849 3.99851 15.0396 4.1531 15.2305 4.15332C15.4215 4.15332 15.577 3.99864 15.5771 3.80762C15.5771 3.61644 15.4216 3.46094 15.2305 3.46094ZM16.2695 3.46094C16.0784 3.46094 15.9229 3.61644 15.9229 3.80762C15.923 3.99864 16.0785 4.15332 16.2695 4.15332C16.4605 4.15319 16.6151 3.99856 16.6152 3.80762C16.6152 3.61652 16.4606 3.46106 16.2695 3.46094ZM17.3076 3.46094C17.1165 3.461 16.9619 3.61648 16.9619 3.80762C16.9621 3.9986 17.1166 4.15326 17.3076 4.15332C17.4987 4.15332 17.6541 3.99864 17.6543 3.80762C17.6543 3.61644 17.4988 3.46094 17.3076 3.46094ZM11.0771 2.42188C10.886 2.42188 10.7305 2.57738 10.7305 2.76855C10.7305 2.95967 10.886 3.11426 11.0771 3.11426C11.2681 3.11403 11.4228 2.95953 11.4229 2.76855C11.4229 2.57752 11.2681 2.42211 11.0771 2.42188ZM12.1152 2.42188C11.9242 2.42207 11.7695 2.5775 11.7695 2.76855C11.7696 2.95955 11.9243 3.11407 12.1152 3.11426C12.3064 3.11426 12.4618 2.95967 12.4619 2.76855C12.4619 2.57738 12.3064 2.42188 12.1152 2.42188ZM13.1543 2.42188C12.9631 2.42188 12.8076 2.57738 12.8076 2.76855C12.8077 2.95967 12.9632 3.11426 13.1543 3.11426C13.3453 3.11411 13.4999 2.95957 13.5 2.76855C13.5 2.57747 13.3453 2.42203 13.1543 2.42188ZM14.1924 2.42188C14.0012 2.42191 13.8467 2.5774 13.8467 2.76855C13.8468 2.95965 14.0013 3.11423 14.1924 3.11426C14.3835 3.11426 14.539 2.95967 14.5391 2.76855C14.5391 2.57738 14.3836 2.42188 14.1924 2.42188ZM15.2305 2.42188C15.0395 2.42209 14.8848 2.57751 14.8848 2.76855C14.8848 2.95953 15.0395 3.11404 15.2305 3.11426C15.4216 3.11426 15.5771 2.95967 15.5771 2.76855C15.5771 2.57738 15.4216 2.42188 15.2305 2.42188ZM16.2695 2.42188C16.0784 2.42188 15.9229 2.57738 15.9229 2.76855C15.9229 2.95967 16.0784 3.11426 16.2695 3.11426C16.4606 3.11413 16.6152 2.95959 16.6152 2.76855C16.6152 2.57746 16.4606 2.422 16.2695 2.42188ZM17.3076 2.42188C17.1165 2.42193 16.9619 2.57742 16.9619 2.76855C16.962 2.95963 17.1165 3.1142 17.3076 3.11426C17.4987 3.11426 17.6542 2.95967 17.6543 2.76855C17.6543 2.57738 17.4988 2.42188 17.3076 2.42188ZM11.0771 1.38477C10.886 1.38477 10.7305 1.54027 10.7305 1.73145C10.7305 1.92256 10.886 2.07715 11.0771 2.07715C11.2681 2.07692 11.4228 1.92242 11.4229 1.73145C11.4229 1.54041 11.2681 1.385 11.0771 1.38477ZM12.1152 1.38477C11.9242 1.38496 11.7695 1.54039 11.7695 1.73145C11.7696 1.92244 11.9243 2.07696 12.1152 2.07715C12.3064 2.07715 12.4618 1.92256 12.4619 1.73145C12.4619 1.54027 12.3064 1.38477 12.1152 1.38477ZM13.1543 1.38477C12.9631 1.38477 12.8076 1.54027 12.8076 1.73145C12.8077 1.92256 12.9632 2.07715 13.1543 2.07715C13.3453 2.077 13.4999 1.92246 13.5 1.73145C13.5 1.54036 13.3453 1.38492 13.1543 1.38477ZM14.1924 1.38477C14.0012 1.3848 13.8467 1.54029 13.8467 1.73145C13.8468 1.92254 14.0013 2.07712 14.1924 2.07715C14.3835 2.07715 14.539 1.92256 14.5391 1.73145C14.5391 1.54027 14.3836 1.38477 14.1924 1.38477ZM15.2305 1.38477C15.0395 1.38498 14.8848 1.5404 14.8848 1.73145C14.8848 1.92242 15.0395 2.07693 15.2305 2.07715C15.4216 2.07715 15.5771 1.92256 15.5771 1.73145C15.5771 1.54027 15.4216 1.38477 15.2305 1.38477ZM16.2695 1.38477C16.0784 1.38477 15.9229 1.54027 15.9229 1.73145C15.9229 1.92256 16.0784 2.07715 16.2695 2.07715C16.4606 2.07702 16.6152 1.92248 16.6152 1.73145C16.6152 1.54035 16.4606 1.38489 16.2695 1.38477ZM17.3076 1.38477C17.1165 1.38482 16.9619 1.54031 16.9619 1.73145C16.962 1.92252 17.1165 2.07709 17.3076 2.07715C17.4987 2.07715 17.6542 1.92256 17.6543 1.73145C17.6543 1.54027 17.4988 1.38477 17.3076 1.38477ZM11.0771 0.34668C10.886 0.34668 10.7305 0.501235 10.7305 0.692383C10.7305 0.883558 10.886 1.03906 11.0771 1.03906C11.2681 1.03883 11.4229 0.883416 11.4229 0.692383C11.4228 0.501378 11.2681 0.346911 11.0771 0.34668ZM12.1152 0.34668C11.9242 0.346871 11.7696 0.501353 11.7695 0.692383C11.7695 0.883441 11.9242 1.03887 12.1152 1.03906C12.3064 1.03906 12.4619 0.883558 12.4619 0.692383C12.4619 0.501235 12.3064 0.34668 12.1152 0.34668ZM13.1543 0.34668C12.9631 0.34668 12.8076 0.501235 12.8076 0.692383C12.8076 0.883558 12.9631 1.03906 13.1543 1.03906C13.3453 1.03891 13.5 0.883465 13.5 0.692383C13.5 0.501329 13.3453 0.346832 13.1543 0.34668ZM14.1924 0.34668C14.0013 0.346712 13.8467 0.501255 13.8467 0.692383C13.8467 0.883538 14.0012 1.03903 14.1924 1.03906C14.3836 1.03906 14.5391 0.883558 14.5391 0.692383C14.539 0.501235 14.3835 0.34668 14.1924 0.34668ZM15.2305 0.34668C15.0395 0.346897 14.8848 0.501369 14.8848 0.692383C14.8848 0.883424 15.0395 1.03885 15.2305 1.03906C15.4216 1.03906 15.5771 0.883558 15.5771 0.692383C15.5771 0.501235 15.4216 0.34668 15.2305 0.34668ZM16.2695 0.34668C16.0784 0.34668 15.9229 0.501235 15.9229 0.692383C15.9229 0.883558 16.0784 1.03906 16.2695 1.03906C16.4606 1.03894 16.6152 0.883481 16.6152 0.692383C16.6152 0.501313 16.4606 0.346806 16.2695 0.34668ZM17.3076 0.34668C17.1165 0.346739 16.9619 0.501271 16.9619 0.692383C16.9619 0.883522 17.1165 1.039 17.3076 1.03906C17.4988 1.03906 17.6543 0.883558 17.6543 0.692383C17.6543 0.501235 17.4988 0.34668 17.3076 0.34668Z" fill="#FAFAFA"/>
<path d="M7.61523 7.61523H0V0H7.61523V7.61523ZM0.692383 6.57812C0.501255 6.57816 0.346712 6.7327 0.34668 6.92383C0.34668 7.11498 0.501235 7.27048 0.692383 7.27051C0.883558 7.27051 1.03906 7.115 1.03906 6.92383C1.03903 6.73268 0.883538 6.57812 0.692383 6.57812ZM1.73047 6.57812C1.5395 6.57834 1.3848 6.73281 1.38477 6.92383C1.38477 7.11487 1.53948 7.27029 1.73047 7.27051C1.92164 7.27051 2.07715 7.115 2.07715 6.92383C2.07712 6.73268 1.92162 6.57812 1.73047 6.57812ZM2.76953 6.57812C2.57838 6.57812 2.42288 6.73268 2.42285 6.92383C2.42285 7.115 2.57836 7.27051 2.76953 7.27051C2.9606 7.27038 3.11523 7.11493 3.11523 6.92383C3.1152 6.73276 2.96058 6.57825 2.76953 6.57812ZM3.80762 6.57812C3.61651 6.57818 3.46195 6.73272 3.46191 6.92383C3.46191 7.11497 3.61649 7.27045 3.80762 7.27051C3.99879 7.27051 4.1543 7.115 4.1543 6.92383C4.15426 6.73268 3.99877 6.57812 3.80762 6.57812ZM4.8457 6.57812C4.65476 6.57837 4.50003 6.73283 4.5 6.92383C4.5 7.11485 4.65473 7.27026 4.8457 7.27051C5.03688 7.27051 5.19238 7.115 5.19238 6.92383C5.19235 6.73268 5.03686 6.57812 4.8457 6.57812ZM5.88477 6.57812C5.69361 6.57812 5.53812 6.73268 5.53809 6.92383C5.53809 7.115 5.69359 7.27051 5.88477 7.27051C6.07586 7.27041 6.23047 7.11494 6.23047 6.92383C6.23044 6.73274 6.07584 6.57822 5.88477 6.57812ZM6.92285 6.57812C6.73177 6.57821 6.57718 6.73273 6.57715 6.92383C6.57715 7.11495 6.73175 7.27042 6.92285 7.27051C7.11403 7.27051 7.26953 7.115 7.26953 6.92383C7.2695 6.73268 7.11401 6.57812 6.92285 6.57812ZM0.692383 5.53906C0.50132 5.53909 0.346818 5.69373 0.34668 5.88477C0.34668 6.07592 0.501235 6.23141 0.692383 6.23145C0.883558 6.23145 1.03906 6.07594 1.03906 5.88477C1.03892 5.69371 0.883473 5.53906 0.692383 5.53906ZM1.73047 5.53906C1.53956 5.53928 1.3849 5.69384 1.38477 5.88477C1.38477 6.07581 1.53948 6.23123 1.73047 6.23145C1.92164 6.23145 2.07715 6.07594 2.07715 5.88477C2.07701 5.69371 1.92156 5.53906 1.73047 5.53906ZM2.76953 5.53906C2.57844 5.53906 2.42299 5.69371 2.42285 5.88477C2.42285 6.07594 2.57836 6.23145 2.76953 6.23145C2.9606 6.23132 3.11523 6.07586 3.11523 5.88477C3.1151 5.69379 2.96051 5.53919 2.76953 5.53906ZM3.80762 5.53906C3.61658 5.53912 3.46205 5.69374 3.46191 5.88477C3.46191 6.0759 3.61649 6.23139 3.80762 6.23145C3.99879 6.23145 4.1543 6.07594 4.1543 5.88477C4.15416 5.69371 3.99871 5.53906 3.80762 5.53906ZM4.8457 5.53906C4.65482 5.53931 4.50014 5.69386 4.5 5.88477C4.5 6.07579 4.65473 6.2312 4.8457 6.23145C5.03688 6.23145 5.19238 6.07594 5.19238 5.88477C5.19224 5.69371 5.03679 5.53906 4.8457 5.53906ZM5.88477 5.53906C5.69368 5.53906 5.53822 5.69371 5.53809 5.88477C5.53809 6.07594 5.69359 6.23145 5.88477 6.23145C6.07586 6.23135 6.23047 6.07588 6.23047 5.88477C6.23033 5.69377 6.07577 5.53916 5.88477 5.53906ZM6.92285 5.53906C6.73183 5.53915 6.57729 5.69376 6.57715 5.88477C6.57715 6.07589 6.73175 6.23136 6.92285 6.23145C7.11403 6.23145 7.26953 6.07594 7.26953 5.88477C7.26939 5.69371 7.11394 5.53906 6.92285 5.53906ZM0.692383 4.5C0.501385 4.50003 0.346923 4.65476 0.34668 4.8457C0.34668 5.03686 0.501235 5.19235 0.692383 5.19238C0.883558 5.19238 1.03906 5.03688 1.03906 4.8457C1.03882 4.65473 0.883408 4.5 0.692383 4.5ZM1.73047 4.5C1.53963 4.50022 1.38501 4.65487 1.38477 4.8457C1.38477 5.03674 1.53948 5.19217 1.73047 5.19238C1.92164 5.19238 2.07715 5.03688 2.07715 4.8457C2.07691 4.65473 1.92149 4.5 1.73047 4.5ZM2.76953 4.5C2.57851 4.5 2.42309 4.65473 2.42285 4.8457C2.42285 5.03688 2.57836 5.19238 2.76953 5.19238C2.9606 5.19226 3.11523 5.0368 3.11523 4.8457C3.11499 4.65481 2.96045 4.50013 2.76953 4.5ZM3.80762 4.5C3.61664 4.50006 3.46216 4.65477 3.46191 4.8457C3.46191 5.03684 3.61649 5.19232 3.80762 5.19238C3.99879 5.19238 4.1543 5.03688 4.1543 4.8457C4.15405 4.65473 3.99864 4.5 3.80762 4.5ZM4.8457 4.5C4.65489 4.50024 4.50024 4.65489 4.5 4.8457C4.5 5.03673 4.65473 5.19214 4.8457 5.19238C5.03688 5.19238 5.19238 5.03688 5.19238 4.8457C5.19214 4.65473 5.03673 4.5 4.8457 4.5ZM5.88477 4.5C5.69374 4.5 5.53833 4.65473 5.53809 4.8457C5.53809 5.03688 5.69359 5.19238 5.88477 5.19238C6.07586 5.19228 6.23047 5.03682 6.23047 4.8457C6.23023 4.6548 6.07571 4.5001 5.88477 4.5ZM6.92285 4.5C6.7319 4.50009 6.57739 4.65479 6.57715 4.8457C6.57715 5.03683 6.73175 5.1923 6.92285 5.19238C7.11403 5.19238 7.26953 5.03688 7.26953 4.8457C7.26929 4.65473 7.11388 4.5 6.92285 4.5ZM0.692383 3.46094C0.501235 3.46097 0.34668 3.61646 0.34668 3.80762C0.346858 3.99862 0.501345 4.15329 0.692383 4.15332C0.883448 4.15332 1.03888 3.99864 1.03906 3.80762C1.03906 3.61644 0.883558 3.46094 0.692383 3.46094ZM1.73047 3.46094C1.53948 3.46115 1.38477 3.61658 1.38477 3.80762C1.38494 3.99851 1.53959 4.1531 1.73047 4.15332C1.92153 4.15332 2.07697 3.99864 2.07715 3.80762C2.07715 3.61644 1.92164 3.46094 1.73047 3.46094ZM2.76953 3.46094C2.57836 3.46094 2.42285 3.61644 2.42285 3.80762C2.42303 3.99864 2.57847 4.15332 2.76953 4.15332C2.96049 4.15319 3.11506 3.99856 3.11523 3.80762C3.11523 3.61652 2.9606 3.46106 2.76953 3.46094ZM3.80762 3.46094C3.61649 3.461 3.46191 3.61648 3.46191 3.80762C3.46209 3.9986 3.6166 4.15326 3.80762 4.15332C3.99868 4.15332 4.15412 3.99864 4.1543 3.80762C4.1543 3.61644 3.99879 3.46094 3.80762 3.46094ZM4.8457 3.46094C4.65473 3.46118 4.5 3.61659 4.5 3.80762C4.50018 3.99849 4.65485 4.15308 4.8457 4.15332C5.03677 4.15332 5.1922 3.99864 5.19238 3.80762C5.19238 3.61644 5.03688 3.46094 4.8457 3.46094ZM5.88477 3.46094C5.69359 3.46094 5.53809 3.61644 5.53809 3.80762C5.53826 3.99864 5.6937 4.15332 5.88477 4.15332C6.07575 4.15322 6.23029 3.99858 6.23047 3.80762C6.23047 3.6165 6.07586 3.46104 5.88477 3.46094ZM6.92285 3.46094C6.73175 3.46102 6.57715 3.61649 6.57715 3.80762C6.57733 3.99859 6.73186 4.15323 6.92285 4.15332C7.11392 4.15332 7.26935 3.99864 7.26953 3.80762C7.26953 3.61644 7.11403 3.46094 6.92285 3.46094ZM0.692383 2.42188C0.501235 2.42191 0.34668 2.5774 0.34668 2.76855C0.346753 2.95965 0.50128 3.11423 0.692383 3.11426C0.883513 3.11426 1.03899 2.95967 1.03906 2.76855C1.03906 2.57738 0.883558 2.42188 0.692383 2.42188ZM1.73047 2.42188C1.53948 2.42209 1.38477 2.57751 1.38477 2.76855C1.38484 2.95953 1.53952 3.11404 1.73047 3.11426C1.9216 3.11426 2.07708 2.95967 2.07715 2.76855C2.07715 2.57738 1.92164 2.42188 1.73047 2.42188ZM2.76953 2.42188C2.57836 2.42188 2.42285 2.57738 2.42285 2.76855C2.42292 2.95967 2.5784 3.11426 2.76953 3.11426C2.96055 3.11413 3.11516 2.95959 3.11523 2.76855C3.11523 2.57746 2.9606 2.422 2.76953 2.42188ZM3.80762 2.42188C3.61649 2.42193 3.46191 2.57742 3.46191 2.76855C3.46199 2.95963 3.61654 3.1142 3.80762 3.11426C3.99875 3.11426 4.15422 2.95967 4.1543 2.76855C4.1543 2.57738 3.99879 2.42188 3.80762 2.42188ZM4.8457 2.42188C4.65473 2.42212 4.5 2.57753 4.5 2.76855C4.50007 2.95952 4.65478 3.11401 4.8457 3.11426C5.03683 3.11426 5.19231 2.95967 5.19238 2.76855C5.19238 2.57738 5.03688 2.42188 4.8457 2.42188ZM5.88477 2.42188C5.69359 2.42188 5.53809 2.57738 5.53809 2.76855C5.53816 2.95967 5.69364 3.11426 5.88477 3.11426C6.07581 3.11416 6.2304 2.95961 6.23047 2.76855C6.23047 2.57744 6.07586 2.42197 5.88477 2.42188ZM6.92285 2.42188C6.73175 2.42196 6.57715 2.57743 6.57715 2.76855C6.57722 2.95962 6.73179 3.11417 6.92285 3.11426C7.11398 3.11426 7.26946 2.95967 7.26953 2.76855C7.26953 2.57738 7.11403 2.42188 6.92285 2.42188ZM0.692383 1.38477C0.501235 1.3848 0.34668 1.54029 0.34668 1.73145C0.346753 1.92254 0.50128 2.07712 0.692383 2.07715C0.883513 2.07715 1.03899 1.92256 1.03906 1.73145C1.03906 1.54027 0.883558 1.38477 0.692383 1.38477ZM1.73047 1.38477C1.53948 1.38498 1.38477 1.5404 1.38477 1.73145C1.38484 1.92242 1.53952 2.07693 1.73047 2.07715C1.9216 2.07715 2.07708 1.92256 2.07715 1.73145C2.07715 1.54027 1.92164 1.38477 1.73047 1.38477ZM2.76953 1.38477C2.57836 1.38477 2.42285 1.54027 2.42285 1.73145C2.42292 1.92256 2.5784 2.07715 2.76953 2.07715C2.96055 2.07702 3.11516 1.92248 3.11523 1.73145C3.11523 1.54035 2.9606 1.38489 2.76953 1.38477ZM3.80762 1.38477C3.61649 1.38482 3.46191 1.54031 3.46191 1.73145C3.46199 1.92252 3.61654 2.07709 3.80762 2.07715C3.99875 2.07715 4.15422 1.92256 4.1543 1.73145C4.1543 1.54027 3.99879 1.38477 3.80762 1.38477ZM4.8457 1.38477C4.65473 1.38501 4.5 1.54042 4.5 1.73145C4.50007 1.92241 4.65478 2.0769 4.8457 2.07715C5.03683 2.07715 5.19231 1.92256 5.19238 1.73145C5.19238 1.54027 5.03688 1.38477 4.8457 1.38477ZM5.88477 1.38477C5.69359 1.38477 5.53809 1.54027 5.53809 1.73145C5.53816 1.92256 5.69364 2.07715 5.88477 2.07715C6.07581 2.07705 6.2304 1.9225 6.23047 1.73145C6.23047 1.54033 6.07586 1.38486 5.88477 1.38477ZM6.92285 1.38477C6.73175 1.38485 6.57715 1.54032 6.57715 1.73145C6.57722 1.92251 6.73179 2.07706 6.92285 2.07715C7.11398 2.07715 7.26946 1.92256 7.26953 1.73145C7.26953 1.54027 7.11403 1.38477 6.92285 1.38477ZM0.692383 0.34668C0.501255 0.346712 0.346712 0.501255 0.34668 0.692383C0.34668 0.883538 0.501235 1.03903 0.692383 1.03906C0.883558 1.03906 1.03906 0.883558 1.03906 0.692383C1.03903 0.501235 0.883538 0.34668 0.692383 0.34668ZM1.73047 0.34668C1.5395 0.346897 1.3848 0.501369 1.38477 0.692383C1.38477 0.883425 1.53948 1.03885 1.73047 1.03906C1.92164 1.03906 2.07715 0.883558 2.07715 0.692383C2.07712 0.501235 1.92162 0.34668 1.73047 0.34668ZM2.76953 0.34668C2.57838 0.34668 2.42288 0.501235 2.42285 0.692383C2.42285 0.883558 2.57836 1.03906 2.76953 1.03906C2.9606 1.03894 3.11523 0.883481 3.11523 0.692383C3.1152 0.501313 2.96058 0.346806 2.76953 0.34668ZM3.80762 0.34668C3.61651 0.346739 3.46195 0.501271 3.46191 0.692383C3.46191 0.883522 3.61649 1.039 3.80762 1.03906C3.99879 1.03906 4.1543 0.883558 4.1543 0.692383C4.15426 0.501235 3.99877 0.34668 3.80762 0.34668ZM4.8457 0.34668C4.65476 0.346923 4.50003 0.501385 4.5 0.692383C4.5 0.883408 4.65473 1.03882 4.8457 1.03906C5.03688 1.03906 5.19238 0.883558 5.19238 0.692383C5.19235 0.501235 5.03686 0.34668 4.8457 0.34668ZM5.88477 0.34668C5.69361 0.34668 5.53812 0.501235 5.53809 0.692383C5.53809 0.883558 5.69359 1.03906 5.88477 1.03906C6.07586 1.03896 6.23047 0.883497 6.23047 0.692383C6.23044 0.501296 6.07584 0.346779 5.88477 0.34668ZM6.92285 0.34668C6.73177 0.346765 6.57718 0.501288 6.57715 0.692383C6.57715 0.883506 6.73175 1.03898 6.92285 1.03906C7.11403 1.03906 7.26953 0.883558 7.26953 0.692383C7.2695 0.501235 7.11401 0.34668 6.92285 0.34668Z" fill="#FAFAFA"/>
<path d="M12.8074 17.9996H5.19214V10.3844H12.8074V17.9996ZM5.88452 16.9615C5.69335 16.9615 5.53784 17.1171 5.53784 17.3082C5.53802 17.4993 5.69346 17.6539 5.88452 17.6539C6.0755 17.6538 6.23005 17.4992 6.23022 17.3082C6.23022 17.1171 6.07561 16.9616 5.88452 16.9615ZM6.92261 16.9615C6.7315 16.9616 6.5769 17.1171 6.5769 17.3082C6.57708 17.4992 6.73161 17.6538 6.92261 17.6539C7.11367 17.6539 7.26911 17.4993 7.26929 17.3082C7.26929 17.1171 7.11378 16.9615 6.92261 16.9615ZM7.96167 16.9615C7.77049 16.9615 7.61499 17.1171 7.61499 17.3082C7.61517 17.4993 7.7706 17.6539 7.96167 17.6539C8.15252 17.6537 8.30719 17.4991 8.30737 17.3082C8.30737 17.1172 8.15263 16.9618 7.96167 16.9615ZM8.99976 16.9615C8.80858 16.9615 8.65308 17.1171 8.65308 17.3082C8.65325 17.4993 8.80869 17.6539 8.99976 17.6539C9.19076 17.6539 9.34528 17.4992 9.34546 17.3082C9.34546 17.1171 9.19087 16.9616 8.99976 16.9615ZM10.0378 16.9615C9.84676 16.9617 9.69214 17.1171 9.69214 17.3082C9.69232 17.4992 9.84687 17.6538 10.0378 17.6539C10.2289 17.6539 10.3843 17.4993 10.3845 17.3082C10.3845 17.1171 10.229 16.9615 10.0378 16.9615ZM11.0769 16.9615C10.8857 16.9615 10.7302 17.1171 10.7302 17.3082C10.7304 17.4993 10.8858 17.6539 11.0769 17.6539C11.2678 17.6537 11.4224 17.4991 11.4226 17.3082C11.4226 17.1172 11.2679 16.9618 11.0769 16.9615ZM12.115 16.9615C11.924 16.9617 11.7693 17.1172 11.7693 17.3082C11.7695 17.4991 11.9241 17.6537 12.115 17.6539C12.3061 17.6539 12.4615 17.4993 12.4617 17.3082C12.4617 17.1171 12.3062 16.9615 12.115 16.9615ZM5.88452 15.9225C5.69335 15.9225 5.53784 16.078 5.53784 16.2692C5.53791 16.4603 5.69339 16.6149 5.88452 16.6149C6.07557 16.6148 6.23015 16.4602 6.23022 16.2692C6.23022 16.0781 6.07561 15.9226 5.88452 15.9225ZM6.92261 15.9225C6.7315 15.9226 6.5769 16.078 6.5769 16.2692C6.57698 16.4602 6.73155 16.6148 6.92261 16.6149C7.11374 16.6149 7.26921 16.4603 7.26929 16.2692C7.26929 16.078 7.11378 15.9225 6.92261 15.9225ZM7.96167 15.9225C7.77049 15.9225 7.61499 16.078 7.61499 16.2692C7.61506 16.4603 7.77054 16.6149 7.96167 16.6149C8.15258 16.6146 8.3073 16.4601 8.30737 16.2692C8.30737 16.0781 8.15263 15.9227 7.96167 15.9225ZM8.99976 15.9225C8.80858 15.9225 8.65308 16.078 8.65308 16.2692C8.65315 16.4603 8.80863 16.6149 8.99976 16.6149C9.19082 16.6148 9.34539 16.4602 9.34546 16.2692C9.34546 16.078 9.19087 15.9226 8.99976 15.9225ZM10.0378 15.9225C9.84676 15.9226 9.69214 16.0781 9.69214 16.2692C9.69221 16.4602 9.84681 16.6148 10.0378 16.6149C10.229 16.6149 10.3844 16.4603 10.3845 16.2692C10.3845 16.078 10.229 15.9225 10.0378 15.9225ZM11.0769 15.9225C10.8857 15.9225 10.7302 16.078 10.7302 16.2692C10.7303 16.4603 10.8858 16.6149 11.0769 16.6149C11.2678 16.6146 11.4225 16.4601 11.4226 16.2692C11.4226 16.0781 11.2679 15.9227 11.0769 15.9225ZM12.115 15.9225C11.924 15.9227 11.7693 16.0781 11.7693 16.2692C11.7694 16.4602 11.924 16.6147 12.115 16.6149C12.3061 16.6149 12.4616 16.4603 12.4617 16.2692C12.4617 16.078 12.3062 15.9225 12.115 15.9225ZM5.88452 14.8844C5.69337 14.8844 5.53787 15.039 5.53784 15.2301C5.53784 15.4213 5.69335 15.5768 5.88452 15.5768C6.07561 15.5767 6.23022 15.4212 6.23022 15.2301C6.23019 15.039 6.07559 14.8845 5.88452 14.8844ZM6.92261 14.8844C6.73152 14.8845 6.57694 15.039 6.5769 15.2301C6.5769 15.4212 6.7315 15.5767 6.92261 15.5768C7.11378 15.5768 7.26929 15.4213 7.26929 15.2301C7.26925 15.039 7.11376 14.8844 6.92261 14.8844ZM7.96167 14.8844C7.77051 14.8844 7.61502 15.039 7.61499 15.2301C7.61499 15.4213 7.77049 15.5768 7.96167 15.5768C8.15263 15.5765 8.30737 15.4211 8.30737 15.2301C8.30734 15.0391 8.15261 14.8847 7.96167 14.8844ZM8.99976 14.8844C8.8086 14.8844 8.65311 15.039 8.65308 15.2301C8.65308 15.4213 8.80858 15.5768 8.99976 15.5768C9.19087 15.5767 9.34546 15.4212 9.34546 15.2301C9.34543 15.039 9.19085 14.8845 8.99976 14.8844ZM10.0378 14.8844C9.84678 14.8845 9.69217 15.039 9.69214 15.2301C9.69214 15.4212 9.84676 15.5767 10.0378 15.5768C10.229 15.5768 10.3845 15.4213 10.3845 15.2301C10.3845 15.039 10.229 14.8844 10.0378 14.8844ZM11.0769 14.8844C10.8857 14.8844 10.7303 15.039 10.7302 15.2301C10.7302 15.4213 10.8857 15.5768 11.0769 15.5768C11.2679 15.5766 11.4226 15.4211 11.4226 15.2301C11.4226 15.0391 11.2679 14.8846 11.0769 14.8844ZM12.115 14.8844C11.924 14.8846 11.7693 15.0391 11.7693 15.2301C11.7693 15.4212 11.924 15.5766 12.115 15.5768C12.3062 15.5768 12.4617 15.4213 12.4617 15.2301C12.4616 15.039 12.3061 14.8844 12.115 14.8844ZM5.88452 13.8453C5.69343 13.8453 5.53798 14 5.53784 14.191C5.53784 14.3822 5.69335 14.5377 5.88452 14.5377C6.07561 14.5376 6.23022 14.3822 6.23022 14.191C6.23009 14 6.07553 13.8454 5.88452 13.8453ZM6.92261 13.8453C6.73159 13.8454 6.57704 14 6.5769 14.191C6.5769 14.3822 6.7315 14.5376 6.92261 14.5377C7.11378 14.5377 7.26929 14.3822 7.26929 14.191C7.26915 14 7.1137 13.8453 6.92261 13.8453ZM7.96167 13.8453C7.77058 13.8453 7.61513 14 7.61499 14.191C7.61499 14.3822 7.77049 14.5377 7.96167 14.5377C8.15263 14.5375 8.30737 14.3821 8.30737 14.191C8.30724 14.0001 8.15254 13.8456 7.96167 13.8453ZM8.99976 13.8453C8.80867 13.8453 8.65321 14 8.65308 14.191C8.65308 14.3822 8.80858 14.5377 8.99976 14.5377C9.19087 14.5376 9.34546 14.3822 9.34546 14.191C9.34532 14 9.19078 13.8454 8.99976 13.8453ZM10.0378 13.8453C9.84685 13.8454 9.69228 14.0001 9.69214 14.191C9.69214 14.3821 9.84676 14.5376 10.0378 14.5377C10.229 14.5377 10.3845 14.3822 10.3845 14.191C10.3844 14 10.2289 13.8453 10.0378 13.8453ZM11.0769 13.8453C10.8858 13.8453 10.7304 14 10.7302 14.191C10.7302 14.3822 10.8857 14.5377 11.0769 14.5377C11.2679 14.5375 11.4226 14.3821 11.4226 14.191C11.4225 14.0001 11.2678 13.8456 11.0769 13.8453ZM12.115 13.8453C11.9241 13.8455 11.7694 14.0001 11.7693 14.191C11.7693 14.3821 11.924 14.5375 12.115 14.5377C12.3062 14.5377 12.4617 14.3822 12.4617 14.191C12.4615 14 12.3061 13.8453 12.115 13.8453ZM5.88452 12.8082C5.69343 12.8082 5.53798 12.9629 5.53784 13.1539C5.53784 13.3451 5.69335 13.5006 5.88452 13.5006C6.07561 13.5005 6.23022 13.345 6.23022 13.1539C6.23009 12.9629 6.07553 12.8083 5.88452 12.8082ZM6.92261 12.8082C6.73159 12.8083 6.57704 12.9629 6.5769 13.1539C6.5769 13.3451 6.7315 13.5005 6.92261 13.5006C7.11378 13.5006 7.26929 13.3451 7.26929 13.1539C7.26915 12.9629 7.1137 12.8082 6.92261 12.8082ZM7.96167 12.8082C7.77058 12.8082 7.61513 12.9629 7.61499 13.1539C7.61499 13.3451 7.77049 13.5006 7.96167 13.5006C8.15263 13.5004 8.30737 13.3449 8.30737 13.1539C8.30724 12.963 8.15254 12.8085 7.96167 12.8082ZM8.99976 12.8082C8.80867 12.8082 8.65321 12.9629 8.65308 13.1539C8.65308 13.3451 8.80858 13.5006 8.99976 13.5006C9.19087 13.5005 9.34546 13.3451 9.34546 13.1539C9.34532 12.9629 9.19078 12.8083 8.99976 12.8082ZM10.0378 12.8082C9.84685 12.8083 9.69228 12.9629 9.69214 13.1539C9.69214 13.345 9.84676 13.5005 10.0378 13.5006C10.229 13.5006 10.3845 13.3451 10.3845 13.1539C10.3844 12.9629 10.2289 12.8082 10.0378 12.8082ZM11.0769 12.8082C10.8858 12.8082 10.7304 12.9629 10.7302 13.1539C10.7302 13.3451 10.8857 13.5006 11.0769 13.5006C11.2679 13.5004 11.4226 13.345 11.4226 13.1539C11.4225 12.963 11.2678 12.8085 11.0769 12.8082ZM12.115 12.8082C11.9241 12.8084 11.7694 12.963 11.7693 13.1539C11.7693 13.345 11.924 13.5004 12.115 13.5006C12.3062 13.5006 12.4617 13.3451 12.4617 13.1539C12.4615 12.9629 12.3061 12.8082 12.115 12.8082ZM5.88452 11.7692C5.6935 11.7692 5.53808 11.9239 5.53784 12.1149C5.53784 12.306 5.69335 12.4615 5.88452 12.4615C6.07561 12.4614 6.23022 12.306 6.23022 12.1149C6.22998 11.924 6.07546 11.7693 5.88452 11.7692ZM6.92261 11.7692C6.73165 11.7693 6.57715 11.924 6.5769 12.1149C6.5769 12.306 6.7315 12.4615 6.92261 12.4615C7.11378 12.4615 7.26929 12.306 7.26929 12.1149C7.26904 11.9239 7.11363 11.7692 6.92261 11.7692ZM7.96167 11.7692C7.77064 11.7692 7.61523 11.9239 7.61499 12.1149C7.61499 12.306 7.77049 12.4615 7.96167 12.4615C8.15263 12.4613 8.30737 12.3059 8.30737 12.1149C8.30713 11.9241 8.15248 11.7694 7.96167 11.7692ZM8.99976 11.7692C8.80873 11.7692 8.65332 11.9239 8.65308 12.1149C8.65308 12.306 8.80858 12.4615 8.99976 12.4615C9.19087 12.4615 9.34546 12.306 9.34546 12.1149C9.34522 11.9239 9.19072 11.7692 8.99976 11.7692ZM10.0378 11.7692C9.84691 11.7693 9.69238 11.924 9.69214 12.1149C9.69214 12.306 9.84676 12.4614 10.0378 12.4615C10.229 12.4615 10.3845 12.306 10.3845 12.1149C10.3843 11.9239 10.2289 11.7692 10.0378 11.7692ZM11.0769 11.7692C10.8859 11.7692 10.7305 11.9239 10.7302 12.1149C10.7302 12.306 10.8857 12.4615 11.0769 12.4615C11.2679 12.4613 11.4226 12.3059 11.4226 12.1149C11.4224 11.924 11.2677 11.7694 11.0769 11.7692ZM12.115 11.7692C11.9241 11.7694 11.7695 11.924 11.7693 12.1149C11.7693 12.3059 11.924 12.4614 12.115 12.4615C12.3062 12.4615 12.4617 12.306 12.4617 12.1149C12.4614 11.9239 12.306 11.7692 12.115 11.7692ZM5.88452 10.7301C5.69335 10.7301 5.53784 10.8856 5.53784 11.0768C5.53802 11.2678 5.69346 11.4225 5.88452 11.4225C6.0755 11.4224 6.23005 11.2677 6.23022 11.0768C6.23022 10.8857 6.07561 10.7302 5.88452 10.7301ZM6.92261 10.7301C6.7315 10.7302 6.5769 10.8857 6.5769 11.0768C6.57708 11.2678 6.73161 11.4224 6.92261 11.4225C7.11367 11.4225 7.26911 11.2678 7.26929 11.0768C7.26929 10.8856 7.11378 10.7301 6.92261 10.7301ZM7.96167 10.7301C7.77049 10.7301 7.61499 10.8856 7.61499 11.0768C7.61517 11.2678 7.7706 11.4225 7.96167 11.4225C8.15252 11.4222 8.30719 11.2676 8.30737 11.0768C8.30737 10.8858 8.15263 10.7304 7.96167 10.7301ZM8.99976 10.7301C8.80858 10.7301 8.65308 10.8856 8.65308 11.0768C8.65325 11.2678 8.80869 11.4225 8.99976 11.4225C9.19076 11.4224 9.34528 11.2678 9.34546 11.0768C9.34546 10.8857 9.19087 10.7302 8.99976 10.7301ZM10.0378 10.7301C9.84676 10.7302 9.69214 10.8857 9.69214 11.0768C9.69232 11.2677 9.84687 11.4224 10.0378 11.4225C10.2289 11.4225 10.3843 11.2678 10.3845 11.0768C10.3845 10.8856 10.229 10.7301 10.0378 10.7301ZM11.0769 10.7301C10.8857 10.7301 10.7302 10.8856 10.7302 11.0768C10.7304 11.2678 10.8858 11.4225 11.0769 11.4225C11.2678 11.4223 11.4224 11.2677 11.4226 11.0768C11.4226 10.8857 11.2679 10.7303 11.0769 10.7301ZM12.115 10.7301C11.924 10.7303 11.7693 10.8857 11.7693 11.0768C11.7695 11.2677 11.9241 11.4223 12.115 11.4225C12.3061 11.4225 12.4615 11.2678 12.4617 11.0768C12.4617 10.8856 12.3062 10.7301 12.115 10.7301Z" fill="#FAFAFA"/>
<path d="M18 17.9996H10.3848V10.3834H18V17.9996ZM11.0771 16.9615C10.886 16.9615 10.7305 17.1171 10.7305 17.3082C10.7306 17.4993 10.8861 17.6539 11.0771 17.6539C11.268 17.6537 11.4227 17.4991 11.4229 17.3082C11.4229 17.1172 11.2681 16.9618 11.0771 16.9615ZM12.1152 16.9615C11.9242 16.9617 11.7695 17.1172 11.7695 17.3082C11.7697 17.4991 11.9243 17.6537 12.1152 17.6539C12.3063 17.6539 12.4617 17.4993 12.4619 17.3082C12.4619 17.1171 12.3064 16.9615 12.1152 16.9615ZM13.1543 16.9615C12.9631 16.9615 12.8076 17.1171 12.8076 17.3082C12.8078 17.4993 12.9632 17.6539 13.1543 17.6539C13.3452 17.6538 13.4998 17.4992 13.5 17.3082C13.5 17.1171 13.3453 16.9617 13.1543 16.9615ZM14.1924 16.9615C14.0012 16.9616 13.8467 17.1171 13.8467 17.3082C13.8469 17.4992 14.0013 17.6539 14.1924 17.6539C14.3834 17.6539 14.5389 17.4993 14.5391 17.3082C14.5391 17.1171 14.3836 16.9615 14.1924 16.9615ZM15.2305 16.9615C15.0395 16.9618 14.8848 17.1172 14.8848 17.3082C14.8849 17.4991 15.0396 17.6537 15.2305 17.6539C15.4215 17.6539 15.577 17.4993 15.5771 17.3082C15.5771 17.1171 15.4216 16.9615 15.2305 16.9615ZM16.2695 16.9615C16.0784 16.9615 15.9229 17.1171 15.9229 17.3082C15.923 17.4993 16.0785 17.6539 16.2695 17.6539C16.4605 17.6538 16.6151 17.4992 16.6152 17.3082C16.6152 17.1171 16.4606 16.9617 16.2695 16.9615ZM17.3076 16.9615C17.1165 16.9616 16.9619 17.1171 16.9619 17.3082C16.9621 17.4992 17.1166 17.6539 17.3076 17.6539C17.4987 17.6539 17.6541 17.4993 17.6543 17.3082C17.6543 17.1171 17.4988 16.9615 17.3076 16.9615ZM11.0771 15.9225C10.886 15.9225 10.7305 16.078 10.7305 16.2692C10.7305 16.4603 10.886 16.6149 11.0771 16.6149C11.2681 16.6146 11.4228 16.4601 11.4229 16.2692C11.4229 16.0781 11.2681 15.9227 11.0771 15.9225ZM12.1152 15.9225C11.9242 15.9227 11.7695 16.0781 11.7695 16.2692C11.7696 16.4602 11.9243 16.6147 12.1152 16.6149C12.3064 16.6149 12.4618 16.4603 12.4619 16.2692C12.4619 16.078 12.3064 15.9225 12.1152 15.9225ZM13.1543 15.9225C12.9631 15.9225 12.8076 16.078 12.8076 16.2692C12.8077 16.4603 12.9632 16.6149 13.1543 16.6149C13.3453 16.6147 13.4999 16.4602 13.5 16.2692C13.5 16.0781 13.3453 15.9226 13.1543 15.9225ZM14.1924 15.9225C14.0012 15.9225 13.8467 16.078 13.8467 16.2692C13.8468 16.4603 14.0013 16.6148 14.1924 16.6149C14.3835 16.6149 14.539 16.4603 14.5391 16.2692C14.5391 16.078 14.3836 15.9225 14.1924 15.9225ZM15.2305 15.9225C15.0395 15.9227 14.8848 16.0781 14.8848 16.2692C14.8848 16.4601 15.0395 16.6147 15.2305 16.6149C15.4216 16.6149 15.5771 16.4603 15.5771 16.2692C15.5771 16.078 15.4216 15.9225 15.2305 15.9225ZM16.2695 15.9225C16.0784 15.9225 15.9229 16.078 15.9229 16.2692C15.9229 16.4603 16.0784 16.6149 16.2695 16.6149C16.4606 16.6147 16.6152 16.4602 16.6152 16.2692C16.6152 16.0781 16.4606 15.9226 16.2695 15.9225ZM17.3076 15.9225C17.1165 15.9225 16.9619 16.078 16.9619 16.2692C16.962 16.4602 17.1165 16.6148 17.3076 16.6149C17.4987 16.6149 17.6542 16.4603 17.6543 16.2692C17.6543 16.078 17.4988 15.9225 17.3076 15.9225ZM11.0771 14.8844C10.886 14.8844 10.7305 15.039 10.7305 15.2301C10.7305 15.4213 10.886 15.5768 11.0771 15.5768C11.2681 15.5766 11.4229 15.4211 11.4229 15.2301C11.4228 15.0391 11.2681 14.8846 11.0771 14.8844ZM12.1152 14.8844C11.9242 14.8846 11.7696 15.0391 11.7695 15.2301C11.7695 15.4212 11.9242 15.5766 12.1152 15.5768C12.3064 15.5768 12.4619 15.4213 12.4619 15.2301C12.4619 15.039 12.3064 14.8844 12.1152 14.8844ZM13.1543 14.8844C12.9631 14.8844 12.8076 15.039 12.8076 15.2301C12.8076 15.4213 12.9631 15.5768 13.1543 15.5768C13.3453 15.5766 13.5 15.4212 13.5 15.2301C13.5 15.039 13.3453 14.8846 13.1543 14.8844ZM14.1924 14.8844C14.0013 14.8844 13.8467 15.039 13.8467 15.2301C13.8467 15.4213 14.0012 15.5767 14.1924 15.5768C14.3836 15.5768 14.5391 15.4213 14.5391 15.2301C14.539 15.039 14.3835 14.8844 14.1924 14.8844ZM15.2305 14.8844C15.0395 14.8846 14.8848 15.0391 14.8848 15.2301C14.8848 15.4211 15.0395 15.5766 15.2305 15.5768C15.4216 15.5768 15.5771 15.4213 15.5771 15.2301C15.5771 15.039 15.4216 14.8844 15.2305 14.8844ZM16.2695 14.8844C16.0784 14.8844 15.9229 15.039 15.9229 15.2301C15.9229 15.4213 16.0784 15.5768 16.2695 15.5768C16.4606 15.5767 16.6152 15.4212 16.6152 15.2301C16.6152 15.039 16.4606 14.8845 16.2695 14.8844ZM17.3076 14.8844C17.1165 14.8845 16.9619 15.039 16.9619 15.2301C16.9619 15.4212 17.1165 15.5767 17.3076 15.5768C17.4988 15.5768 17.6543 15.4213 17.6543 15.2301C17.6543 15.039 17.4988 14.8844 17.3076 14.8844ZM11.0771 13.8453C10.8861 13.8453 10.7306 14 10.7305 14.191C10.7305 14.3822 10.886 14.5377 11.0771 14.5377C11.2681 14.5375 11.4229 14.3821 11.4229 14.191C11.4227 14.0001 11.268 13.8456 11.0771 13.8453ZM12.1152 13.8453C11.9243 13.8455 11.7697 14.0001 11.7695 14.191C11.7695 14.3821 11.9242 14.5375 12.1152 14.5377C12.3064 14.5377 12.4619 14.3822 12.4619 14.191C12.4618 14 12.3063 13.8453 12.1152 13.8453ZM13.1543 13.8453C12.9632 13.8453 12.8078 14 12.8076 14.191C12.8076 14.3822 12.9631 14.5377 13.1543 14.5377C13.3453 14.5376 13.5 14.3821 13.5 14.191C13.4999 14.0001 13.3453 13.8455 13.1543 13.8453ZM14.1924 13.8453C14.0013 13.8454 13.8468 14 13.8467 14.191C13.8467 14.3822 14.0012 14.5377 14.1924 14.5377C14.3836 14.5377 14.5391 14.3822 14.5391 14.191C14.5389 14 14.3835 13.8453 14.1924 13.8453ZM15.2305 13.8453C15.0396 13.8456 14.8849 14.0001 14.8848 14.191C14.8848 14.3821 15.0395 14.5375 15.2305 14.5377C15.4216 14.5377 15.5771 14.3822 15.5771 14.191C15.577 14 15.4216 13.8453 15.2305 13.8453ZM16.2695 13.8453C16.0784 13.8453 15.923 14 15.9229 14.191C15.9229 14.3822 16.0784 14.5377 16.2695 14.5377C16.4606 14.5376 16.6152 14.3821 16.6152 14.191C16.6151 14.0001 16.4605 13.8455 16.2695 13.8453ZM17.3076 13.8453C17.1166 13.8454 16.9621 14 16.9619 14.191C16.9619 14.3822 17.1165 14.5377 17.3076 14.5377C17.4988 14.5377 17.6543 14.3822 17.6543 14.191C17.6542 14 17.4987 13.8453 17.3076 13.8453ZM11.0771 12.8082C10.8861 12.8082 10.7306 12.9629 10.7305 13.1539C10.7305 13.3451 10.886 13.5006 11.0771 13.5006C11.2681 13.5004 11.4229 13.345 11.4229 13.1539C11.4227 12.963 11.268 12.8085 11.0771 12.8082ZM12.1152 12.8082C11.9243 12.8084 11.7697 12.963 11.7695 13.1539C11.7695 13.345 11.9242 13.5004 12.1152 13.5006C12.3064 13.5006 12.4619 13.3451 12.4619 13.1539C12.4618 12.9629 12.3063 12.8082 12.1152 12.8082ZM13.1543 12.8082C12.9632 12.8082 12.8078 12.9629 12.8076 13.1539C12.8076 13.3451 12.9631 13.5006 13.1543 13.5006C13.3453 13.5005 13.5 13.345 13.5 13.1539C13.4999 12.963 13.3453 12.8084 13.1543 12.8082ZM14.1924 12.8082C14.0013 12.8083 13.8468 12.9629 13.8467 13.1539C13.8467 13.3451 14.0012 13.5006 14.1924 13.5006C14.3836 13.5006 14.5391 13.3451 14.5391 13.1539C14.5389 12.9629 14.3835 12.8082 14.1924 12.8082ZM15.2305 12.8082C15.0396 12.8084 14.8849 12.963 14.8848 13.1539C14.8848 13.345 15.0395 13.5004 15.2305 13.5006C15.4216 13.5006 15.5771 13.3451 15.5771 13.1539C15.577 12.9629 15.4216 12.8082 15.2305 12.8082ZM16.2695 12.8082C16.0784 12.8082 15.923 12.9629 15.9229 13.1539C15.9229 13.3451 16.0784 13.5006 16.2695 13.5006C16.4606 13.5005 16.6152 13.345 16.6152 13.1539C16.6151 12.963 16.4605 12.8084 16.2695 12.8082ZM17.3076 12.8082C17.1166 12.8083 16.9621 12.9629 16.9619 13.1539C16.9619 13.3451 17.1165 13.5006 17.3076 13.5006C17.4988 13.5006 17.6543 13.3451 17.6543 13.1539C17.6542 12.9629 17.4987 12.8082 17.3076 12.8082ZM11.0771 11.7692C10.8861 11.7692 10.7307 11.9239 10.7305 12.1149C10.7305 12.306 10.886 12.4615 11.0771 12.4615C11.2681 12.4613 11.4229 12.3059 11.4229 12.1149C11.4226 11.924 11.268 11.7694 11.0771 11.7692ZM12.1152 11.7692C11.9244 11.7694 11.7698 11.924 11.7695 12.1149C11.7695 12.3059 11.9242 12.4614 12.1152 12.4615C12.3064 12.4615 12.4619 12.306 12.4619 12.1149C12.4617 11.9239 12.3063 11.7692 12.1152 11.7692ZM13.1543 11.7692C12.9633 11.7692 12.8079 11.9239 12.8076 12.1149C12.8076 12.306 12.9631 12.4615 13.1543 12.4615C13.3453 12.4614 13.5 12.3059 13.5 12.1149C13.4998 11.924 13.3452 11.7693 13.1543 11.7692ZM14.1924 11.7692C14.0014 11.7692 13.8469 11.9239 13.8467 12.1149C13.8467 12.306 14.0012 12.4615 14.1924 12.4615C14.3836 12.4615 14.5391 12.306 14.5391 12.1149C14.5388 11.9239 14.3834 11.7692 14.1924 11.7692ZM15.2305 11.7692C15.0396 11.7694 14.885 11.924 14.8848 12.1149C14.8848 12.3059 15.0395 12.4613 15.2305 12.4615C15.4216 12.4615 15.5771 12.306 15.5771 12.1149C15.5769 11.9239 15.4215 11.7692 15.2305 11.7692ZM16.2695 11.7692C16.0785 11.7692 15.9231 11.9239 15.9229 12.1149C15.9229 12.306 16.0784 12.4615 16.2695 12.4615C16.4606 12.4614 16.6152 12.306 16.6152 12.1149C16.615 11.924 16.4604 11.7693 16.2695 11.7692ZM17.3076 11.7692C17.1166 11.7692 16.9622 11.9239 16.9619 12.1149C16.9619 12.306 17.1165 12.4615 17.3076 12.4615C17.4988 12.4615 17.6543 12.306 17.6543 12.1149C17.6541 11.9239 17.4986 11.7692 17.3076 11.7692ZM11.0771 10.7301C10.886 10.7301 10.7305 10.8856 10.7305 11.0768C10.7306 11.2678 10.8861 11.4225 11.0771 11.4225C11.268 11.4223 11.4227 11.2677 11.4229 11.0768C11.4229 10.8857 11.2681 10.7303 11.0771 10.7301ZM12.1152 10.7301C11.9242 10.7303 11.7695 10.8857 11.7695 11.0768C11.7697 11.2677 11.9243 11.4223 12.1152 11.4225C12.3063 11.4225 12.4617 11.2678 12.4619 11.0768C12.4619 10.8856 12.3064 10.7301 12.1152 10.7301ZM13.1543 10.7301C12.9631 10.7301 12.8076 10.8856 12.8076 11.0768C12.8078 11.2678 12.9632 11.4225 13.1543 11.4225C13.3452 11.4223 13.4998 11.2677 13.5 11.0768C13.5 10.8857 13.3453 10.7303 13.1543 10.7301ZM14.1924 10.7301C14.0012 10.7301 13.8467 10.8856 13.8467 11.0768C13.8469 11.2678 14.0013 11.4225 14.1924 11.4225C14.3834 11.4225 14.5389 11.2678 14.5391 11.0768C14.5391 10.8856 14.3836 10.7301 14.1924 10.7301ZM15.2305 10.7301C15.0395 10.7303 14.8848 10.8857 14.8848 11.0768C14.8849 11.2677 15.0396 11.4223 15.2305 11.4225C15.4215 11.4225 15.577 11.2678 15.5771 11.0768C15.5771 10.8856 15.4216 10.7301 15.2305 10.7301ZM16.2695 10.7301C16.0784 10.7301 15.9229 10.8856 15.9229 11.0768C15.923 11.2678 16.0785 11.4225 16.2695 11.4225C16.4605 11.4224 16.6151 11.2677 16.6152 11.0768C16.6152 10.8857 16.4606 10.7302 16.2695 10.7301ZM17.3076 10.7301C17.1165 10.7302 16.9619 10.8856 16.9619 11.0768C16.9621 11.2678 17.1166 11.4224 17.3076 11.4225C17.4987 11.4225 17.6541 11.2678 17.6543 11.0768C17.6543 10.8856 17.4988 10.7301 17.3076 10.7301Z" fill="#FAFAFA"/>
<path d="M7.61523 17.9996H0V10.3834H7.61523V17.9996ZM0.692383 16.9615C0.501235 16.9616 0.34668 17.1171 0.34668 17.3082C0.346858 17.4992 0.501345 17.6539 0.692383 17.6539C0.883448 17.6539 1.03888 17.4993 1.03906 17.3082C1.03906 17.1171 0.883558 16.9615 0.692383 16.9615ZM1.73047 16.9615C1.53948 16.9618 1.38477 17.1172 1.38477 17.3082C1.38494 17.4991 1.53959 17.6537 1.73047 17.6539C1.92153 17.6539 2.07697 17.4993 2.07715 17.3082C2.07715 17.1171 1.92164 16.9615 1.73047 16.9615ZM2.76953 16.9615C2.57836 16.9615 2.42285 17.1171 2.42285 17.3082C2.42303 17.4993 2.57847 17.6539 2.76953 17.6539C2.96049 17.6538 3.11506 17.4992 3.11523 17.3082C3.11523 17.1171 2.9606 16.9617 2.76953 16.9615ZM3.80762 16.9615C3.61649 16.9616 3.46191 17.1171 3.46191 17.3082C3.46209 17.4992 3.6166 17.6539 3.80762 17.6539C3.99868 17.6539 4.15412 17.4993 4.1543 17.3082C4.1543 17.1171 3.99879 16.9615 3.80762 16.9615ZM4.8457 16.9615C4.65473 16.9618 4.5 17.1172 4.5 17.3082C4.50018 17.4991 4.65484 17.6537 4.8457 17.6539C5.03677 17.6539 5.1922 17.4993 5.19238 17.3082C5.19238 17.1171 5.03688 16.9615 4.8457 16.9615ZM5.88477 16.9615C5.69359 16.9615 5.53809 17.1171 5.53809 17.3082C5.53826 17.4993 5.6937 17.6539 5.88477 17.6539C6.07575 17.6538 6.23029 17.4992 6.23047 17.3082C6.23047 17.1171 6.07586 16.9616 5.88477 16.9615ZM6.92285 16.9615C6.73175 16.9616 6.57715 17.1171 6.57715 17.3082C6.57733 17.4992 6.73186 17.6538 6.92285 17.6539C7.11392 17.6539 7.26935 17.4993 7.26953 17.3082C7.26953 17.1171 7.11403 16.9615 6.92285 16.9615ZM0.692383 15.9225C0.501235 15.9225 0.34668 16.078 0.34668 16.2692C0.346753 16.4603 0.50128 16.6148 0.692383 16.6149C0.883513 16.6149 1.03899 16.4603 1.03906 16.2692C1.03906 16.078 0.883558 15.9225 0.692383 15.9225ZM1.73047 15.9225C1.53948 15.9227 1.38477 16.0781 1.38477 16.2692C1.38484 16.4601 1.53952 16.6147 1.73047 16.6149C1.9216 16.6149 2.07708 16.4603 2.07715 16.2692C2.07715 16.078 1.92164 15.9225 1.73047 15.9225ZM2.76953 15.9225C2.57836 15.9225 2.42285 16.078 2.42285 16.2692C2.42292 16.4603 2.5784 16.6149 2.76953 16.6149C2.96055 16.6147 3.11516 16.4602 3.11523 16.2692C3.11523 16.0781 2.9606 15.9226 2.76953 15.9225ZM3.80762 15.9225C3.61649 15.9225 3.46191 16.078 3.46191 16.2692C3.46199 16.4602 3.61654 16.6148 3.80762 16.6149C3.99875 16.6149 4.15422 16.4603 4.1543 16.2692C4.1543 16.078 3.99879 15.9225 3.80762 15.9225ZM4.8457 15.9225C4.65473 15.9227 4.5 16.0781 4.5 16.2692C4.50007 16.4601 4.65478 16.6146 4.8457 16.6149C5.03683 16.6149 5.19231 16.4603 5.19238 16.2692C5.19238 16.078 5.03688 15.9225 4.8457 15.9225ZM5.88477 15.9225C5.69359 15.9225 5.53809 16.078 5.53809 16.2692C5.53816 16.4603 5.69364 16.6149 5.88477 16.6149C6.07581 16.6148 6.2304 16.4602 6.23047 16.2692C6.23047 16.0781 6.07586 15.9226 5.88477 15.9225ZM6.92285 15.9225C6.73175 15.9226 6.57715 16.078 6.57715 16.2692C6.57722 16.4602 6.73179 16.6148 6.92285 16.6149C7.11398 16.6149 7.26946 16.4603 7.26953 16.2692C7.26953 16.078 7.11403 15.9225 6.92285 15.9225ZM0.692383 14.8844C0.501255 14.8844 0.346712 15.039 0.34668 15.2301C0.34668 15.4213 0.501235 15.5767 0.692383 15.5768C0.883558 15.5768 1.03906 15.4213 1.03906 15.2301C1.03903 15.039 0.883538 14.8844 0.692383 14.8844ZM1.73047 14.8844C1.5395 14.8846 1.3848 15.0391 1.38477 15.2301C1.38477 15.4211 1.53948 15.5766 1.73047 15.5768C1.92164 15.5768 2.07715 15.4213 2.07715 15.2301C2.07712 15.039 1.92162 14.8844 1.73047 14.8844ZM2.76953 14.8844C2.57838 14.8844 2.42288 15.039 2.42285 15.2301C2.42285 15.4213 2.57836 15.5768 2.76953 15.5768C2.9606 15.5767 3.11523 15.4212 3.11523 15.2301C3.1152 15.039 2.96058 14.8845 2.76953 14.8844ZM3.80762 14.8844C3.61651 14.8845 3.46195 15.039 3.46191 15.2301C3.46191 15.4212 3.61649 15.5767 3.80762 15.5768C3.99879 15.5768 4.1543 15.4213 4.1543 15.2301C4.15426 15.039 3.99877 14.8844 3.80762 14.8844ZM4.8457 14.8844C4.65476 14.8846 4.50003 15.0391 4.5 15.2301C4.5 15.4211 4.65473 15.5765 4.8457 15.5768C5.03688 15.5768 5.19238 15.4213 5.19238 15.2301C5.19235 15.039 5.03686 14.8844 4.8457 14.8844ZM5.88477 14.8844C5.69361 14.8844 5.53812 15.039 5.53809 15.2301C5.53809 15.4213 5.69359 15.5768 5.88477 15.5768C6.07586 15.5767 6.23047 15.4212 6.23047 15.2301C6.23044 15.039 6.07584 14.8845 5.88477 14.8844ZM6.92285 14.8844C6.73177 14.8845 6.57718 15.039 6.57715 15.2301C6.57715 15.4212 6.73175 15.5767 6.92285 15.5768C7.11403 15.5768 7.26953 15.4213 7.26953 15.2301C7.2695 15.039 7.11401 14.8844 6.92285 14.8844ZM0.692383 13.8453C0.50132 13.8454 0.346818 14 0.34668 14.191C0.34668 14.3822 0.501235 14.5377 0.692383 14.5377C0.883558 14.5377 1.03906 14.3822 1.03906 14.191C1.03892 14 0.883473 13.8453 0.692383 13.8453ZM1.73047 13.8453C1.53956 13.8456 1.3849 14.0001 1.38477 14.191C1.38477 14.3821 1.53948 14.5375 1.73047 14.5377C1.92164 14.5377 2.07715 14.3822 2.07715 14.191C2.07701 14 1.92156 13.8453 1.73047 13.8453ZM2.76953 13.8453C2.57844 13.8453 2.42299 14 2.42285 14.191C2.42285 14.3822 2.57836 14.5377 2.76953 14.5377C2.9606 14.5376 3.11523 14.3821 3.11523 14.191C3.1151 14.0001 2.96051 13.8455 2.76953 13.8453ZM3.80762 13.8453C3.61658 13.8454 3.46205 14 3.46191 14.191C3.46191 14.3822 3.61649 14.5377 3.80762 14.5377C3.99879 14.5377 4.1543 14.3822 4.1543 14.191C4.15416 14 3.99871 13.8453 3.80762 13.8453ZM4.8457 13.8453C4.65482 13.8456 4.50014 14.0001 4.5 14.191C4.5 14.3821 4.65473 14.5375 4.8457 14.5377C5.03688 14.5377 5.19238 14.3822 5.19238 14.191C5.19224 14 5.03679 13.8453 4.8457 13.8453ZM5.88477 13.8453C5.69368 13.8453 5.53822 14 5.53809 14.191C5.53809 14.3822 5.69359 14.5377 5.88477 14.5377C6.07586 14.5376 6.23047 14.3822 6.23047 14.191C6.23033 14 6.07577 13.8454 5.88477 13.8453ZM6.92285 13.8453C6.73183 13.8454 6.57729 14 6.57715 14.191C6.57715 14.3822 6.73175 14.5376 6.92285 14.5377C7.11403 14.5377 7.26953 14.3822 7.26953 14.191C7.26939 14 7.11394 13.8453 6.92285 13.8453ZM0.692383 12.8082C0.50132 12.8083 0.346818 12.9629 0.34668 13.1539C0.34668 13.3451 0.501235 13.5006 0.692383 13.5006C0.883558 13.5006 1.03906 13.3451 1.03906 13.1539C1.03892 12.9629 0.883473 12.8082 0.692383 12.8082ZM1.73047 12.8082C1.53956 12.8084 1.3849 12.963 1.38477 13.1539C1.38477 13.345 1.53948 13.5004 1.73047 13.5006C1.92164 13.5006 2.07715 13.3451 2.07715 13.1539C2.07701 12.9629 1.92156 12.8082 1.73047 12.8082ZM2.76953 12.8082C2.57844 12.8082 2.42299 12.9629 2.42285 13.1539C2.42285 13.3451 2.57836 13.5006 2.76953 13.5006C2.9606 13.5005 3.11523 13.345 3.11523 13.1539C3.1151 12.963 2.96051 12.8084 2.76953 12.8082ZM3.80762 12.8082C3.61658 12.8083 3.46205 12.9629 3.46191 13.1539C3.46191 13.3451 3.61649 13.5006 3.80762 13.5006C3.99879 13.5006 4.1543 13.3451 4.1543 13.1539C4.15416 12.9629 3.99871 12.8082 3.80762 12.8082ZM4.8457 12.8082C4.65482 12.8085 4.50014 12.963 4.5 13.1539C4.5 13.345 4.65473 13.5004 4.8457 13.5006C5.03688 13.5006 5.19238 13.3451 5.19238 13.1539C5.19224 12.9629 5.03679 12.8082 4.8457 12.8082ZM5.88477 12.8082C5.69368 12.8082 5.53822 12.9629 5.53809 13.1539C5.53809 13.3451 5.69359 13.5006 5.88477 13.5006C6.07586 13.5005 6.23047 13.345 6.23047 13.1539C6.23033 12.9629 6.07577 12.8083 5.88477 12.8082ZM6.92285 12.8082C6.73183 12.8083 6.57729 12.9629 6.57715 13.1539C6.57715 13.3451 6.73175 13.5005 6.92285 13.5006C7.11403 13.5006 7.26953 13.3451 7.26953 13.1539C7.26939 12.9629 7.11394 12.8082 6.92285 12.8082ZM0.692383 11.7692C0.501385 11.7692 0.346923 11.9239 0.34668 12.1149C0.34668 12.306 0.501235 12.4615 0.692383 12.4615C0.883558 12.4615 1.03906 12.306 1.03906 12.1149C1.03882 11.9239 0.883408 11.7692 0.692383 11.7692ZM1.73047 11.7692C1.53963 11.7694 1.38501 11.924 1.38477 12.1149C1.38477 12.3059 1.53948 12.4613 1.73047 12.4615C1.92164 12.4615 2.07715 12.306 2.07715 12.1149C2.07691 11.9239 1.92149 11.7692 1.73047 11.7692ZM2.76953 11.7692C2.57851 11.7692 2.42309 11.9239 2.42285 12.1149C2.42285 12.306 2.57836 12.4615 2.76953 12.4615C2.9606 12.4614 3.11523 12.306 3.11523 12.1149C3.11499 11.924 2.96045 11.7693 2.76953 11.7692ZM3.80762 11.7692C3.61664 11.7692 3.46216 11.9239 3.46191 12.1149C3.46191 12.306 3.61649 12.4615 3.80762 12.4615C3.99879 12.4615 4.1543 12.306 4.1543 12.1149C4.15405 11.9239 3.99864 11.7692 3.80762 11.7692ZM4.8457 11.7692C4.65489 11.7694 4.50024 11.9241 4.5 12.1149C4.5 12.3059 4.65473 12.4613 4.8457 12.4615C5.03688 12.4615 5.19238 12.306 5.19238 12.1149C5.19214 11.9239 5.03673 11.7692 4.8457 11.7692ZM5.88477 11.7692C5.69374 11.7692 5.53833 11.9239 5.53809 12.1149C5.53809 12.306 5.69359 12.4615 5.88477 12.4615C6.07586 12.4614 6.23047 12.306 6.23047 12.1149C6.23023 11.924 6.07571 11.7693 5.88477 11.7692ZM6.92285 11.7692C6.7319 11.7693 6.57739 11.924 6.57715 12.1149C6.57715 12.306 6.73175 12.4615 6.92285 12.4615C7.11403 12.4615 7.26953 12.306 7.26953 12.1149C7.26929 11.9239 7.11388 11.7692 6.92285 11.7692ZM0.692383 10.7301C0.501235 10.7301 0.34668 10.8856 0.34668 11.0768C0.346858 11.2678 0.501345 11.4225 0.692383 11.4225C0.883448 11.4225 1.03888 11.2678 1.03906 11.0768C1.03906 10.8856 0.883558 10.7301 0.692383 10.7301ZM1.73047 10.7301C1.53948 10.7303 1.38477 10.8857 1.38477 11.0768C1.38494 11.2677 1.53959 11.4223 1.73047 11.4225C1.92153 11.4225 2.07697 11.2678 2.07715 11.0768C2.07715 10.8856 1.92164 10.7301 1.73047 10.7301ZM2.76953 10.7301C2.57836 10.7301 2.42285 10.8856 2.42285 11.0768C2.42303 11.2678 2.57847 11.4225 2.76953 11.4225C2.96049 11.4224 3.11506 11.2677 3.11523 11.0768C3.11523 10.8857 2.9606 10.7302 2.76953 10.7301ZM3.80762 10.7301C3.61649 10.7302 3.46191 10.8856 3.46191 11.0768C3.46209 11.2678 3.6166 11.4224 3.80762 11.4225C3.99868 11.4225 4.15412 11.2678 4.1543 11.0768C4.1543 10.8856 3.99879 10.7301 3.80762 10.7301ZM4.8457 10.7301C4.65473 10.7303 4.5 10.8858 4.5 11.0768C4.50018 11.2677 4.65485 11.4222 4.8457 11.4225C5.03677 11.4225 5.1922 11.2678 5.19238 11.0768C5.19238 10.8856 5.03688 10.7301 4.8457 10.7301ZM5.88477 10.7301C5.69359 10.7301 5.53809 10.8856 5.53809 11.0768C5.53826 11.2678 5.6937 11.4225 5.88477 11.4225C6.07575 11.4224 6.23029 11.2677 6.23047 11.0768C6.23047 10.8857 6.07586 10.7302 5.88477 10.7301ZM6.92285 10.7301C6.73175 10.7302 6.57715 10.8857 6.57715 11.0768C6.57733 11.2678 6.73186 11.4224 6.92285 11.4225C7.11392 11.4225 7.26935 11.2678 7.26953 11.0768C7.26953 10.8856 7.11403 10.7301 6.92285 10.7301Z" fill="#FAFAFA"/>
</svg>
