<svg width="602" height="44" viewBox="0 0 602 44" fill="none" xmlns="http://www.w3.org/2000/svg">
<path d="M1 5C1 2.79086 2.79086 1 5 1H117C119.209 1 121 2.79086 121 5V39C121 41.2091 119.209 43 117 43H5C2.79086 43 1 41.2091 1 39V5Z" stroke="white" stroke-width="2" stroke-linecap="round" stroke-linejoin="round"/>
<path d="M41.7823 27.14C41.1197 27.14 40.5223 26.9907 39.9903 26.692C39.4583 26.384 39.0383 25.9687 38.7303 25.446C38.4223 24.9233 38.2683 24.3307 38.2683 23.668C38.2683 23.0147 38.4177 22.4267 38.7163 21.904C39.0243 21.3813 39.435 20.9707 39.9483 20.672C40.471 20.364 41.0543 20.21 41.6983 20.21C42.3143 20.21 42.8557 20.35 43.3223 20.63C43.7983 20.91 44.167 21.2973 44.4283 21.792C44.699 22.2867 44.8343 22.8467 44.8343 23.472C44.8343 23.5653 44.8297 23.668 44.8203 23.78C44.811 23.8827 44.7923 24.004 44.7643 24.144H39.1503V23.094H44.0923L43.6303 23.5C43.6303 23.052 43.551 22.674 43.3923 22.366C43.2337 22.0487 43.0097 21.806 42.7203 21.638C42.431 21.4607 42.081 21.372 41.6703 21.372C41.241 21.372 40.863 21.4653 40.5363 21.652C40.2097 21.8387 39.9577 22.1 39.7803 22.436C39.603 22.772 39.5143 23.1687 39.5143 23.626C39.5143 24.0927 39.6077 24.5033 39.7943 24.858C39.981 25.2033 40.247 25.474 40.5923 25.67C40.9377 25.8567 41.3343 25.95 41.7823 25.95C42.1557 25.95 42.4963 25.8847 42.8043 25.754C43.1217 25.6233 43.3923 25.4273 43.6163 25.166L44.4283 25.992C44.111 26.3653 43.719 26.65 43.2523 26.846C42.795 27.042 42.305 27.14 41.7823 27.14ZM50.3711 27L48.2991 24.088L48.0611 23.864L45.4431 20.35H46.9691L48.8591 22.94L49.0971 23.136L51.8971 27H50.3711ZM45.3171 27L48.0611 23.304L48.7751 24.228L46.8011 27H45.3171ZM49.1951 23.85L48.4671 22.954L50.3011 20.35H51.7711L49.1951 23.85ZM56.5578 27.14C56.0538 27.14 55.5965 27.0373 55.1858 26.832C54.7845 26.6173 54.4625 26.3233 54.2198 25.95C53.9771 25.5767 53.8418 25.152 53.8138 24.676V22.674C53.8418 22.1887 53.9771 21.764 54.2198 21.4C54.4718 21.0267 54.7985 20.7373 55.1998 20.532C55.6105 20.3173 56.0631 20.21 56.5578 20.21C57.1645 20.21 57.7105 20.364 58.1958 20.672C58.6905 20.98 59.0778 21.3953 59.3578 21.918C59.6378 22.4407 59.7778 23.0287 59.7778 23.682C59.7778 24.3353 59.6378 24.9233 59.3578 25.446C59.0778 25.9687 58.6905 26.384 58.1958 26.692C57.7105 26.9907 57.1645 27.14 56.5578 27.14ZM53.0578 29.786V20.35H54.3178V22.1L54.0798 23.71L54.3178 25.334V29.786H53.0578ZM56.3478 25.95C56.7678 25.95 57.1365 25.852 57.4538 25.656C57.7711 25.46 58.0231 25.194 58.2098 24.858C58.3965 24.5127 58.4898 24.116 58.4898 23.668C58.4898 23.2293 58.3965 22.8373 58.2098 22.492C58.0231 22.1467 57.7711 21.8807 57.4538 21.694C57.1365 21.498 56.7725 21.4 56.3618 21.4C55.9418 21.4 55.5731 21.498 55.2558 21.694C54.9385 21.8807 54.6911 22.1467 54.5138 22.492C54.3365 22.8373 54.2478 23.234 54.2478 23.682C54.2478 24.1207 54.3318 24.5127 54.4998 24.858C54.6771 25.194 54.9245 25.46 55.2418 25.656C55.5685 25.852 55.9371 25.95 56.3478 25.95ZM61.2062 27V17.004H62.4662V27H61.2062ZM67.3477 27.14C66.6944 27.14 66.1064 26.986 65.5837 26.678C65.0611 26.37 64.6457 25.9547 64.3377 25.432C64.0297 24.9 63.8757 24.3073 63.8757 23.654C63.8757 23.01 64.0297 22.4313 64.3377 21.918C64.6457 21.3953 65.0611 20.98 65.5837 20.672C66.1064 20.364 66.6944 20.21 67.3477 20.21C67.9917 20.21 68.5751 20.364 69.0977 20.672C69.6297 20.9707 70.0497 21.3813 70.3577 21.904C70.6657 22.4267 70.8197 23.01 70.8197 23.654C70.8197 24.3073 70.6657 24.9 70.3577 25.432C70.0497 25.9547 69.6297 26.37 69.0977 26.678C68.5751 26.986 67.9917 27.14 67.3477 27.14ZM67.3477 25.922C67.7677 25.922 68.1411 25.824 68.4677 25.628C68.7944 25.432 69.0511 25.166 69.2377 24.83C69.4244 24.4847 69.5177 24.0927 69.5177 23.654C69.5177 23.2247 69.4197 22.842 69.2237 22.506C69.0371 22.17 68.7804 21.9087 68.4537 21.722C68.1364 21.526 67.7677 21.428 67.3477 21.428C66.9277 21.428 66.5544 21.526 66.2277 21.722C65.9011 21.9087 65.6444 22.17 65.4577 22.506C65.2711 22.842 65.1777 23.2247 65.1777 23.654C65.1777 24.0927 65.2711 24.4847 65.4577 24.83C65.6444 25.166 65.9011 25.432 66.2277 25.628C66.5544 25.824 66.9277 25.922 67.3477 25.922ZM72.2394 27V20.35H73.4994V27H72.2394ZM73.4994 23.206L73.0234 22.996C73.0234 22.1467 73.2194 21.47 73.6114 20.966C74.0034 20.462 74.5681 20.21 75.3054 20.21C75.6414 20.21 75.9448 20.2707 76.2154 20.392C76.4861 20.504 76.7381 20.6953 76.9714 20.966L76.1454 21.82C76.0054 21.6707 75.8514 21.5633 75.6834 21.498C75.5154 21.4327 75.3194 21.4 75.0954 21.4C74.6288 21.4 74.2461 21.5493 73.9474 21.848C73.6488 22.1467 73.4994 22.5993 73.4994 23.206ZM80.7198 27.14C80.0572 27.14 79.4598 26.9907 78.9278 26.692C78.3958 26.384 77.9758 25.9687 77.6678 25.446C77.3598 24.9233 77.2058 24.3307 77.2058 23.668C77.2058 23.0147 77.3552 22.4267 77.6538 21.904C77.9618 21.3813 78.3725 20.9707 78.8858 20.672C79.4085 20.364 79.9918 20.21 80.6358 20.21C81.2518 20.21 81.7932 20.35 82.2598 20.63C82.7358 20.91 83.1045 21.2973 83.3658 21.792C83.6365 22.2867 83.7718 22.8467 83.7718 23.472C83.7718 23.5653 83.7672 23.668 83.7578 23.78C83.7485 23.8827 83.7298 24.004 83.7018 24.144H78.0878V23.094H83.0298L82.5678 23.5C82.5678 23.052 82.4885 22.674 82.3298 22.366C82.1712 22.0487 81.9472 21.806 81.6578 21.638C81.3685 21.4607 81.0185 21.372 80.6078 21.372C80.1785 21.372 79.8005 21.4653 79.4738 21.652C79.1472 21.8387 78.8952 22.1 78.7178 22.436C78.5405 22.772 78.4518 23.1687 78.4518 23.626C78.4518 24.0927 78.5452 24.5033 78.7318 24.858C78.9185 25.2033 79.1845 25.474 79.5298 25.67C79.8752 25.8567 80.2718 25.95 80.7198 25.95C81.0932 25.95 81.4338 25.8847 81.7418 25.754C82.0592 25.6233 82.3298 25.4273 82.5538 25.166L83.3658 25.992C83.0485 26.3653 82.6565 26.65 82.1898 26.846C81.7325 27.042 81.2425 27.14 80.7198 27.14Z" fill="white"/>
<path d="M115.667 22C115.667 24.9455 118.054 27.3333 121 27.3333C123.946 27.3333 126.333 24.9455 126.333 22C126.333 19.0545 123.946 16.6667 121 16.6667C118.054 16.6667 115.667 19.0545 115.667 22ZM161.707 22.7071C162.098 22.3166 162.098 21.6834 161.707 21.2929L155.343 14.9289C154.953 14.5384 154.319 14.5384 153.929 14.9289C153.538 15.3195 153.538 15.9526 153.929 16.3431L159.586 22L153.929 27.6569C153.538 28.0474 153.538 28.6805 153.929 29.0711C154.319 29.4616 154.953 29.4616 155.343 29.0711L161.707 22.7071ZM121 22V23H161V22V21H121V22Z" fill="white"/>
<path d="M161 5C161 2.79086 162.791 1 165 1H277C279.209 1 281 2.79086 281 5V39C281 41.2091 279.209 43 277 43H165C162.791 43 161 41.2091 161 39V5Z" stroke="white" stroke-width="2" stroke-linecap="round" stroke-linejoin="round"/>
<path d="M187.372 27V17.564H188.632V27H187.372ZM185.734 21.498V20.35H190.27V21.498H185.734ZM191.504 27V20.35H192.764V27H191.504ZM192.764 23.206L192.288 22.996C192.288 22.1467 192.484 21.47 192.876 20.966C193.268 20.462 193.833 20.21 194.57 20.21C194.906 20.21 195.209 20.2707 195.48 20.392C195.751 20.504 196.003 20.6953 196.236 20.966L195.41 21.82C195.27 21.6707 195.116 21.5633 194.948 21.498C194.78 21.4327 194.584 21.4 194.36 21.4C193.893 21.4 193.511 21.5493 193.212 21.848C192.913 22.1467 192.764 22.5993 192.764 23.206ZM199.732 27.14C199.126 27.14 198.575 26.9907 198.08 26.692C197.586 26.384 197.194 25.9687 196.904 25.446C196.624 24.9233 196.484 24.3353 196.484 23.682C196.484 23.0287 196.624 22.4407 196.904 21.918C197.194 21.3953 197.581 20.98 198.066 20.672C198.561 20.364 199.116 20.21 199.732 20.21C200.236 20.21 200.684 20.3173 201.076 20.532C201.478 20.7373 201.8 21.0267 202.042 21.4C202.285 21.764 202.42 22.1887 202.448 22.674V24.676C202.42 25.152 202.285 25.5767 202.042 25.95C201.809 26.3233 201.492 26.6173 201.09 26.832C200.698 27.0373 200.246 27.14 199.732 27.14ZM199.942 25.95C200.568 25.95 201.072 25.74 201.454 25.32C201.837 24.8907 202.028 24.3447 202.028 23.682C202.028 23.2247 201.94 22.828 201.762 22.492C201.594 22.1467 201.352 21.8807 201.034 21.694C200.717 21.498 200.348 21.4 199.928 21.4C199.508 21.4 199.135 21.498 198.808 21.694C198.491 21.89 198.239 22.1607 198.052 22.506C197.875 22.842 197.786 23.2293 197.786 23.668C197.786 24.116 197.875 24.5127 198.052 24.858C198.239 25.194 198.496 25.46 198.822 25.656C199.149 25.852 199.522 25.95 199.942 25.95ZM201.944 27V25.208L202.182 23.584L201.944 21.974V20.35H203.218V27H201.944ZM209.757 27V23.122C209.757 22.618 209.598 22.2027 209.281 21.876C208.964 21.5493 208.553 21.386 208.049 21.386C207.713 21.386 207.414 21.4607 207.153 21.61C206.892 21.7593 206.686 21.9647 206.537 22.226C206.388 22.4873 206.313 22.786 206.313 23.122L205.795 22.828C205.795 22.324 205.907 21.876 206.131 21.484C206.355 21.092 206.668 20.784 207.069 20.56C207.47 20.3267 207.923 20.21 208.427 20.21C208.931 20.21 209.374 20.336 209.757 20.588C210.149 20.84 210.457 21.1713 210.681 21.582C210.905 21.9833 211.017 22.4127 211.017 22.87V27H209.757ZM205.053 27V20.35H206.313V27H205.053ZM214.837 27.14C214.463 27.14 214.109 27.0933 213.773 27C213.446 26.8973 213.143 26.7573 212.863 26.58C212.583 26.3933 212.34 26.174 212.135 25.922L212.947 25.11C213.189 25.4087 213.469 25.6327 213.787 25.782C214.104 25.922 214.459 25.992 214.851 25.992C215.243 25.992 215.546 25.9267 215.761 25.796C215.975 25.656 216.083 25.4647 216.083 25.222C216.083 24.9793 215.994 24.7927 215.817 24.662C215.649 24.522 215.429 24.41 215.159 24.326C214.888 24.2327 214.599 24.144 214.291 24.06C213.992 23.9667 213.707 23.85 213.437 23.71C213.166 23.57 212.942 23.3787 212.765 23.136C212.597 22.8933 212.513 22.5713 212.513 22.17C212.513 21.7687 212.611 21.4233 212.807 21.134C213.003 20.8353 213.273 20.6067 213.619 20.448C213.973 20.2893 214.398 20.21 214.893 20.21C215.415 20.21 215.877 20.3033 216.279 20.49C216.689 20.6673 217.025 20.938 217.287 21.302L216.475 22.114C216.288 21.8713 216.055 21.6847 215.775 21.554C215.504 21.4233 215.196 21.358 214.851 21.358C214.487 21.358 214.207 21.4233 214.011 21.554C213.824 21.6753 213.731 21.848 213.731 22.072C213.731 22.296 213.815 22.4687 213.983 22.59C214.151 22.7113 214.37 22.814 214.641 22.898C214.921 22.982 215.21 23.0707 215.509 23.164C215.807 23.248 216.092 23.3647 216.363 23.514C216.633 23.6633 216.853 23.864 217.021 24.116C217.198 24.368 217.287 24.6993 217.287 25.11C217.287 25.7353 217.063 26.23 216.615 26.594C216.176 26.958 215.583 27.14 214.837 27.14ZM221.525 27.14C220.919 27.14 220.368 26.9907 219.873 26.692C219.379 26.384 218.987 25.9687 218.697 25.446C218.417 24.9233 218.277 24.3353 218.277 23.682C218.277 23.0287 218.417 22.4407 218.697 21.918C218.987 21.3953 219.374 20.98 219.859 20.672C220.354 20.364 220.909 20.21 221.525 20.21C222.029 20.21 222.477 20.3173 222.869 20.532C223.271 20.7373 223.593 21.0267 223.835 21.4C224.078 21.764 224.213 22.1887 224.241 22.674V24.676C224.213 25.152 224.078 25.5767 223.835 25.95C223.602 26.3233 223.285 26.6173 222.883 26.832C222.491 27.0373 222.039 27.14 221.525 27.14ZM221.735 25.95C222.361 25.95 222.865 25.74 223.247 25.32C223.63 24.8907 223.821 24.3447 223.821 23.682C223.821 23.2247 223.733 22.828 223.555 22.492C223.387 22.1467 223.145 21.8807 222.827 21.694C222.51 21.498 222.141 21.4 221.721 21.4C221.301 21.4 220.928 21.498 220.601 21.694C220.284 21.89 220.032 22.1607 219.845 22.506C219.668 22.842 219.579 23.2293 219.579 23.668C219.579 24.116 219.668 24.5127 219.845 24.858C220.032 25.194 220.289 25.46 220.615 25.656C220.942 25.852 221.315 25.95 221.735 25.95ZM223.737 27V25.208L223.975 23.584L223.737 21.974V20.35H225.011V27H223.737ZM229.884 27.14C229.231 27.14 228.638 26.986 228.106 26.678C227.583 26.37 227.168 25.9547 226.86 25.432C226.561 24.9 226.412 24.312 226.412 23.668C226.412 23.0147 226.561 22.4267 226.86 21.904C227.168 21.3813 227.583 20.9707 228.106 20.672C228.638 20.364 229.231 20.21 229.884 20.21C230.397 20.21 230.873 20.308 231.312 20.504C231.751 20.6907 232.129 20.966 232.446 21.33L231.606 22.17C231.401 21.9273 231.149 21.7453 230.85 21.624C230.561 21.4933 230.239 21.428 229.884 21.428C229.464 21.428 229.091 21.526 228.764 21.722C228.437 21.9087 228.181 22.17 227.994 22.506C227.807 22.842 227.714 23.2293 227.714 23.668C227.714 24.1067 227.807 24.494 227.994 24.83C228.181 25.166 228.437 25.432 228.764 25.628C229.091 25.824 229.464 25.922 229.884 25.922C230.239 25.922 230.561 25.8613 230.85 25.74C231.149 25.6093 231.405 25.4227 231.62 25.18L232.446 26.02C232.138 26.3747 231.76 26.65 231.312 26.846C230.873 27.042 230.397 27.14 229.884 27.14ZM234.635 27V17.564H235.895V27H234.635ZM232.997 21.498V20.35H237.533V21.498H232.997ZM238.782 27V20.35H240.042V27H238.782ZM239.412 19.02C239.178 19.02 238.987 18.9453 238.838 18.796C238.688 18.6373 238.614 18.4413 238.614 18.208C238.614 17.984 238.688 17.7973 238.838 17.648C238.987 17.4893 239.178 17.41 239.412 17.41C239.645 17.41 239.836 17.4893 239.986 17.648C240.135 17.7973 240.21 17.984 240.21 18.208C240.21 18.4413 240.135 18.6373 239.986 18.796C239.836 18.9453 239.645 19.02 239.412 19.02ZM244.937 27.14C244.283 27.14 243.695 26.986 243.173 26.678C242.65 26.37 242.235 25.9547 241.927 25.432C241.619 24.9 241.465 24.3073 241.465 23.654C241.465 23.01 241.619 22.4313 241.927 21.918C242.235 21.3953 242.65 20.98 243.173 20.672C243.695 20.364 244.283 20.21 244.937 20.21C245.581 20.21 246.164 20.364 246.687 20.672C247.219 20.9707 247.639 21.3813 247.947 21.904C248.255 22.4267 248.409 23.01 248.409 23.654C248.409 24.3073 248.255 24.9 247.947 25.432C247.639 25.9547 247.219 26.37 246.687 26.678C246.164 26.986 245.581 27.14 244.937 27.14ZM244.937 25.922C245.357 25.922 245.73 25.824 246.057 25.628C246.383 25.432 246.64 25.166 246.827 24.83C247.013 24.4847 247.107 24.0927 247.107 23.654C247.107 23.2247 247.009 22.842 246.813 22.506C246.626 22.17 246.369 21.9087 246.043 21.722C245.725 21.526 245.357 21.428 244.937 21.428C244.517 21.428 244.143 21.526 243.817 21.722C243.49 21.9087 243.233 22.17 243.047 22.506C242.86 22.842 242.767 23.2247 242.767 23.654C242.767 24.0927 242.86 24.4847 243.047 24.83C243.233 25.166 243.49 25.432 243.817 25.628C244.143 25.824 244.517 25.922 244.937 25.922ZM254.532 27V23.122C254.532 22.618 254.374 22.2027 254.056 21.876C253.739 21.5493 253.328 21.386 252.824 21.386C252.488 21.386 252.19 21.4607 251.928 21.61C251.667 21.7593 251.462 21.9647 251.312 22.226C251.163 22.4873 251.088 22.786 251.088 23.122L250.57 22.828C250.57 22.324 250.682 21.876 250.906 21.484C251.13 21.092 251.443 20.784 251.844 20.56C252.246 20.3267 252.698 20.21 253.202 20.21C253.706 20.21 254.15 20.336 254.532 20.588C254.924 20.84 255.232 21.1713 255.456 21.582C255.68 21.9833 255.792 22.4127 255.792 22.87V27H254.532ZM249.828 27V20.35H251.088V27H249.828Z" fill="white"/>
<path d="M275.667 22C275.667 24.9455 278.054 27.3333 281 27.3333C283.946 27.3333 286.333 24.9455 286.333 22C286.333 19.0545 283.946 16.6667 281 16.6667C278.054 16.6667 275.667 19.0545 275.667 22ZM292 23C292.552 23 293 22.5523 293 22C293 21.4477 292.552 21 292 21V22V23ZM281 22V23H292V22V21H281V22Z" fill="white"/>
<g clip-path="url(#clip0_1202_13590)">
<path d="M305.5 17.5L296.5 26.5" stroke="white" stroke-width="1.5" stroke-linecap="round" stroke-linejoin="round"/>
<path d="M296.5 17.5L305.5 26.5" stroke="white" stroke-width="1.5" stroke-linecap="round" stroke-linejoin="round"/>
</g>
<path d="M310 22H321" stroke="white" stroke-opacity="0.5" stroke-width="2" stroke-linecap="round" stroke-linejoin="round" stroke-dasharray="8 8"/>
<path d="M321 5C321 2.79086 322.791 1 325 1H437C439.209 1 441 2.79086 441 5V39C441 41.2091 439.209 43 437 43H325C322.791 43 321 41.2091 321 39V5Z" stroke="white" stroke-opacity="0.5" stroke-width="2" stroke-linecap="round" stroke-linejoin="round" stroke-dasharray="8 8"/>
<path d="M357.65 27.14C357.146 27.14 356.688 27.0373 356.278 26.832C355.876 26.6173 355.554 26.3233 355.312 25.95C355.069 25.5767 354.934 25.152 354.906 24.676V22.674C354.934 22.1887 355.069 21.764 355.312 21.4C355.564 21.0267 355.89 20.7373 356.292 20.532C356.702 20.3173 357.155 20.21 357.65 20.21C358.256 20.21 358.802 20.364 359.288 20.672C359.782 20.98 360.17 21.3953 360.45 21.918C360.73 22.4407 360.87 23.0287 360.87 23.682C360.87 24.3353 360.73 24.9233 360.45 25.446C360.17 25.9687 359.782 26.384 359.288 26.692C358.802 26.9907 358.256 27.14 357.65 27.14ZM354.15 29.786V20.35H355.41V22.1L355.172 23.71L355.41 25.334V29.786H354.15ZM357.44 25.95C357.86 25.95 358.228 25.852 358.546 25.656C358.863 25.46 359.115 25.194 359.302 24.858C359.488 24.5127 359.582 24.116 359.582 23.668C359.582 23.2293 359.488 22.8373 359.302 22.492C359.115 22.1467 358.863 21.8807 358.546 21.694C358.228 21.498 357.864 21.4 357.454 21.4C357.034 21.4 356.665 21.498 356.348 21.694C356.03 21.8807 355.783 22.1467 355.606 22.492C355.428 22.8373 355.34 23.234 355.34 23.682C355.34 24.1207 355.424 24.5127 355.592 24.858C355.769 25.194 356.016 25.46 356.334 25.656C356.66 25.852 357.029 25.95 357.44 25.95ZM365.126 27.14C364.519 27.14 363.969 26.9907 363.474 26.692C362.979 26.384 362.587 25.9687 362.298 25.446C362.018 24.9233 361.878 24.3353 361.878 23.682C361.878 23.0287 362.018 22.4407 362.298 21.918C362.587 21.3953 362.975 20.98 363.46 20.672C363.955 20.364 364.51 20.21 365.126 20.21C365.63 20.21 366.078 20.3173 366.47 20.532C366.871 20.7373 367.193 21.0267 367.436 21.4C367.679 21.764 367.814 22.1887 367.842 22.674V24.676C367.814 25.152 367.679 25.5767 367.436 25.95C367.203 26.3233 366.885 26.6173 366.484 26.832C366.092 27.0373 365.639 27.14 365.126 27.14ZM365.336 25.95C365.961 25.95 366.465 25.74 366.848 25.32C367.231 24.8907 367.422 24.3447 367.422 23.682C367.422 23.2247 367.333 22.828 367.156 22.492C366.988 22.1467 366.745 21.8807 366.428 21.694C366.111 21.498 365.742 21.4 365.322 21.4C364.902 21.4 364.529 21.498 364.202 21.694C363.885 21.89 363.633 22.1607 363.446 22.506C363.269 22.842 363.18 23.2293 363.18 23.668C363.18 24.116 363.269 24.5127 363.446 24.858C363.633 25.194 363.889 25.46 364.216 25.656C364.543 25.852 364.916 25.95 365.336 25.95ZM367.338 27V25.208L367.576 23.584L367.338 21.974V20.35H368.612V27H367.338ZM372.63 27.056L369.746 20.35H371.146L373.288 25.6H372.84L375.094 20.35H376.494L373.386 27.056H372.63ZM370.726 29.786L372.686 25.768L373.386 27.056L372.126 29.786H370.726ZM377.474 27V20.35H378.734V27H377.474ZM381.968 27V22.982C381.968 22.4873 381.814 22.1 381.506 21.82C381.207 21.5307 380.829 21.386 380.372 21.386C380.064 21.386 379.788 21.4513 379.546 21.582C379.303 21.7127 379.107 21.8947 378.958 22.128C378.808 22.3613 378.734 22.6413 378.734 22.968L378.216 22.716C378.216 22.212 378.323 21.7733 378.538 21.4C378.762 21.0267 379.065 20.7373 379.448 20.532C379.83 20.3173 380.26 20.21 380.736 20.21C381.202 20.21 381.622 20.3127 381.996 20.518C382.378 20.7233 382.677 21.0127 382.892 21.386C383.116 21.7593 383.228 22.2027 383.228 22.716V27H381.968ZM386.462 27V22.982C386.462 22.4873 386.308 22.1 386 21.82C385.701 21.5307 385.328 21.386 384.88 21.386C384.572 21.386 384.292 21.4513 384.04 21.582C383.797 21.7127 383.601 21.8947 383.452 22.128C383.302 22.3613 383.228 22.6413 383.228 22.968L382.514 22.716C382.542 22.2027 382.677 21.764 382.92 21.4C383.172 21.0267 383.494 20.7373 383.886 20.532C384.278 20.3173 384.707 20.21 385.174 20.21C385.659 20.21 386.093 20.3127 386.476 20.518C386.858 20.7233 387.162 21.0127 387.386 21.386C387.619 21.7593 387.736 22.2073 387.736 22.73V27H386.462ZM392.53 27.14C391.868 27.14 391.27 26.9907 390.738 26.692C390.206 26.384 389.786 25.9687 389.478 25.446C389.17 24.9233 389.016 24.3307 389.016 23.668C389.016 23.0147 389.166 22.4267 389.464 21.904C389.772 21.3813 390.183 20.9707 390.696 20.672C391.219 20.364 391.802 20.21 392.446 20.21C393.062 20.21 393.604 20.35 394.07 20.63C394.546 20.91 394.915 21.2973 395.176 21.792C395.447 22.2867 395.582 22.8467 395.582 23.472C395.582 23.5653 395.578 23.668 395.568 23.78C395.559 23.8827 395.54 24.004 395.512 24.144H389.898V23.094H394.84L394.378 23.5C394.378 23.052 394.299 22.674 394.14 22.366C393.982 22.0487 393.758 21.806 393.468 21.638C393.179 21.4607 392.829 21.372 392.418 21.372C391.989 21.372 391.611 21.4653 391.284 21.652C390.958 21.8387 390.706 22.1 390.528 22.436C390.351 22.772 390.262 23.1687 390.262 23.626C390.262 24.0927 390.356 24.5033 390.542 24.858C390.729 25.2033 390.995 25.474 391.34 25.67C391.686 25.8567 392.082 25.95 392.53 25.95C392.904 25.95 393.244 25.8847 393.552 25.754C393.87 25.6233 394.14 25.4273 394.364 25.166L395.176 25.992C394.859 26.3653 394.467 26.65 394 26.846C393.543 27.042 393.053 27.14 392.53 27.14ZM401.66 27V23.122C401.66 22.618 401.502 22.2027 401.184 21.876C400.867 21.5493 400.456 21.386 399.952 21.386C399.616 21.386 399.318 21.4607 399.056 21.61C398.795 21.7593 398.59 21.9647 398.44 22.226C398.291 22.4873 398.216 22.786 398.216 23.122L397.698 22.828C397.698 22.324 397.81 21.876 398.034 21.484C398.258 21.092 398.571 20.784 398.972 20.56C399.374 20.3267 399.826 20.21 400.33 20.21C400.834 20.21 401.278 20.336 401.66 20.588C402.052 20.84 402.36 21.1713 402.584 21.582C402.808 21.9833 402.92 22.4127 402.92 22.87V27H401.66ZM396.956 27V20.35H398.216V27H396.956ZM405.566 27V17.564H406.826V27H405.566ZM403.928 21.498V20.35H408.464V21.498H403.928Z" fill="white" fill-opacity="0.5"/>
<path d="M441 22H481" stroke="white" stroke-opacity="0.5" stroke-width="2" stroke-linejoin="round" stroke-dasharray="8 8"/>
<path d="M481 5C481 2.79086 482.791 1 485 1H597C599.209 1 601 2.79086 601 5V39C601 41.2091 599.209 43 597 43H485C482.791 43 481 41.2091 481 39V5Z" stroke="white" stroke-opacity="0.5" stroke-width="2" stroke-linecap="round" stroke-linejoin="round" stroke-dasharray="8 8"/>
<path d="M521.001 27.14C520.628 27.14 520.273 27.0933 519.937 27C519.61 26.8973 519.307 26.7573 519.027 26.58C518.747 26.3933 518.504 26.174 518.299 25.922L519.111 25.11C519.354 25.4087 519.634 25.6327 519.951 25.782C520.268 25.922 520.623 25.992 521.015 25.992C521.407 25.992 521.71 25.9267 521.925 25.796C522.14 25.656 522.247 25.4647 522.247 25.222C522.247 24.9793 522.158 24.7927 521.981 24.662C521.813 24.522 521.594 24.41 521.323 24.326C521.052 24.2327 520.763 24.144 520.455 24.06C520.156 23.9667 519.872 23.85 519.601 23.71C519.33 23.57 519.106 23.3787 518.929 23.136C518.761 22.8933 518.677 22.5713 518.677 22.17C518.677 21.7687 518.775 21.4233 518.971 21.134C519.167 20.8353 519.438 20.6067 519.783 20.448C520.138 20.2893 520.562 20.21 521.057 20.21C521.58 20.21 522.042 20.3033 522.443 20.49C522.854 20.6673 523.19 20.938 523.451 21.302L522.639 22.114C522.452 21.8713 522.219 21.6847 521.939 21.554C521.668 21.4233 521.36 21.358 521.015 21.358C520.651 21.358 520.371 21.4233 520.175 21.554C519.988 21.6753 519.895 21.848 519.895 22.072C519.895 22.296 519.979 22.4687 520.147 22.59C520.315 22.7113 520.534 22.814 520.805 22.898C521.085 22.982 521.374 23.0707 521.673 23.164C521.972 23.248 522.256 23.3647 522.527 23.514C522.798 23.6633 523.017 23.864 523.185 24.116C523.362 24.368 523.451 24.6993 523.451 25.11C523.451 25.7353 523.227 26.23 522.779 26.594C522.34 26.958 521.748 27.14 521.001 27.14ZM527.535 27.14C526.994 27.14 526.504 27.0187 526.066 26.776C525.636 26.524 525.3 26.1787 525.058 25.74C524.815 25.3013 524.694 24.7927 524.694 24.214V20.35H525.954V24.158C525.954 24.522 526.014 24.8393 526.136 25.11C526.266 25.3713 526.453 25.572 526.696 25.712C526.938 25.852 527.223 25.922 527.55 25.922C528.044 25.922 528.432 25.768 528.712 25.46C528.992 25.1427 529.132 24.7087 529.132 24.158V20.35H530.392V24.214C530.392 24.7927 530.27 25.3013 530.028 25.74C529.785 26.1787 529.449 26.524 529.02 26.776C528.6 27.0187 528.105 27.14 527.535 27.14ZM535.118 27.14C534.465 27.14 533.872 26.986 533.34 26.678C532.818 26.37 532.402 25.9547 532.094 25.432C531.796 24.9 531.646 24.312 531.646 23.668C531.646 23.0147 531.796 22.4267 532.094 21.904C532.402 21.3813 532.818 20.9707 533.34 20.672C533.872 20.364 534.465 20.21 535.118 20.21C535.632 20.21 536.108 20.308 536.546 20.504C536.985 20.6907 537.363 20.966 537.68 21.33L536.84 22.17C536.635 21.9273 536.383 21.7453 536.084 21.624C535.795 21.4933 535.473 21.428 535.118 21.428C534.698 21.428 534.325 21.526 533.998 21.722C533.672 21.9087 533.415 22.17 533.228 22.506C533.042 22.842 532.948 23.2293 532.948 23.668C532.948 24.1067 533.042 24.494 533.228 24.83C533.415 25.166 533.672 25.432 533.998 25.628C534.325 25.824 534.698 25.922 535.118 25.922C535.473 25.922 535.795 25.8613 536.084 25.74C536.383 25.6093 536.64 25.4227 536.854 25.18L537.68 26.02C537.372 26.3747 536.994 26.65 536.546 26.846C536.108 27.042 535.632 27.14 535.118 27.14ZM541.831 27.14C541.178 27.14 540.585 26.986 540.053 26.678C539.53 26.37 539.115 25.9547 538.807 25.432C538.508 24.9 538.359 24.312 538.359 23.668C538.359 23.0147 538.508 22.4267 538.807 21.904C539.115 21.3813 539.53 20.9707 540.053 20.672C540.585 20.364 541.178 20.21 541.831 20.21C542.344 20.21 542.82 20.308 543.259 20.504C543.698 20.6907 544.076 20.966 544.393 21.33L543.553 22.17C543.348 21.9273 543.096 21.7453 542.797 21.624C542.508 21.4933 542.186 21.428 541.831 21.428C541.411 21.428 541.038 21.526 540.711 21.722C540.384 21.9087 540.128 22.17 539.941 22.506C539.754 22.842 539.661 23.2293 539.661 23.668C539.661 24.1067 539.754 24.494 539.941 24.83C540.128 25.166 540.384 25.432 540.711 25.628C541.038 25.824 541.411 25.922 541.831 25.922C542.186 25.922 542.508 25.8613 542.797 25.74C543.096 25.6093 543.352 25.4227 543.567 25.18L544.393 26.02C544.085 26.3747 543.707 26.65 543.259 26.846C542.82 27.042 542.344 27.14 541.831 27.14ZM548.586 27.14C547.923 27.14 547.326 26.9907 546.794 26.692C546.262 26.384 545.842 25.9687 545.534 25.446C545.226 24.9233 545.072 24.3307 545.072 23.668C545.072 23.0147 545.221 22.4267 545.52 21.904C545.828 21.3813 546.239 20.9707 546.752 20.672C547.275 20.364 547.858 20.21 548.502 20.21C549.118 20.21 549.659 20.35 550.126 20.63C550.602 20.91 550.971 21.2973 551.232 21.792C551.503 22.2867 551.638 22.8467 551.638 23.472C551.638 23.5653 551.633 23.668 551.624 23.78C551.615 23.8827 551.596 24.004 551.568 24.144H545.954V23.094H550.896L550.434 23.5C550.434 23.052 550.355 22.674 550.196 22.366C550.037 22.0487 549.813 21.806 549.524 21.638C549.235 21.4607 548.885 21.372 548.474 21.372C548.045 21.372 547.667 21.4653 547.34 21.652C547.013 21.8387 546.761 22.1 546.584 22.436C546.407 22.772 546.318 23.1687 546.318 23.626C546.318 24.0927 546.411 24.5033 546.598 24.858C546.785 25.2033 547.051 25.474 547.396 25.67C547.741 25.8567 548.138 25.95 548.586 25.95C548.959 25.95 549.3 25.8847 549.608 25.754C549.925 25.6233 550.196 25.4273 550.42 25.166L551.232 25.992C550.915 26.3653 550.523 26.65 550.056 26.846C549.599 27.042 549.109 27.14 548.586 27.14ZM555.126 27.14C554.753 27.14 554.398 27.0933 554.062 27C553.735 26.8973 553.432 26.7573 553.152 26.58C552.872 26.3933 552.629 26.174 552.424 25.922L553.236 25.11C553.479 25.4087 553.759 25.6327 554.076 25.782C554.393 25.922 554.748 25.992 555.14 25.992C555.532 25.992 555.835 25.9267 556.05 25.796C556.265 25.656 556.372 25.4647 556.372 25.222C556.372 24.9793 556.283 24.7927 556.106 24.662C555.938 24.522 555.719 24.41 555.448 24.326C555.177 24.2327 554.888 24.144 554.58 24.06C554.281 23.9667 553.997 23.85 553.726 23.71C553.455 23.57 553.231 23.3787 553.054 23.136C552.886 22.8933 552.802 22.5713 552.802 22.17C552.802 21.7687 552.9 21.4233 553.096 21.134C553.292 20.8353 553.563 20.6067 553.908 20.448C554.263 20.2893 554.687 20.21 555.182 20.21C555.705 20.21 556.167 20.3033 556.568 20.49C556.979 20.6673 557.315 20.938 557.576 21.302L556.764 22.114C556.577 21.8713 556.344 21.6847 556.064 21.554C555.793 21.4233 555.485 21.358 555.14 21.358C554.776 21.358 554.496 21.4233 554.3 21.554C554.113 21.6753 554.02 21.848 554.02 22.072C554.02 22.296 554.104 22.4687 554.272 22.59C554.44 22.7113 554.659 22.814 554.93 22.898C555.21 22.982 555.499 23.0707 555.798 23.164C556.097 23.248 556.381 23.3647 556.652 23.514C556.923 23.6633 557.142 23.864 557.31 24.116C557.487 24.368 557.576 24.6993 557.576 25.11C557.576 25.7353 557.352 26.23 556.904 26.594C556.465 26.958 555.873 27.14 555.126 27.14ZM561.101 27.14C560.727 27.14 560.373 27.0933 560.037 27C559.71 26.8973 559.407 26.7573 559.127 26.58C558.847 26.3933 558.604 26.174 558.399 25.922L559.211 25.11C559.453 25.4087 559.733 25.6327 560.051 25.782C560.368 25.922 560.723 25.992 561.115 25.992C561.507 25.992 561.81 25.9267 562.025 25.796C562.239 25.656 562.347 25.4647 562.347 25.222C562.347 24.9793 562.258 24.7927 562.081 24.662C561.913 24.522 561.693 24.41 561.423 24.326C561.152 24.2327 560.863 24.144 560.555 24.06C560.256 23.9667 559.971 23.85 559.701 23.71C559.43 23.57 559.206 23.3787 559.029 23.136C558.861 22.8933 558.777 22.5713 558.777 22.17C558.777 21.7687 558.875 21.4233 559.071 21.134C559.267 20.8353 559.537 20.6067 559.883 20.448C560.237 20.2893 560.662 20.21 561.157 20.21C561.679 20.21 562.141 20.3033 562.543 20.49C562.953 20.6673 563.289 20.938 563.551 21.302L562.739 22.114C562.552 21.8713 562.319 21.6847 562.039 21.554C561.768 21.4233 561.46 21.358 561.115 21.358C560.751 21.358 560.471 21.4233 560.275 21.554C560.088 21.6753 559.995 21.848 559.995 22.072C559.995 22.296 560.079 22.4687 560.247 22.59C560.415 22.7113 560.634 22.814 560.905 22.898C561.185 22.982 561.474 23.0707 561.773 23.164C562.071 23.248 562.356 23.3647 562.627 23.514C562.897 23.6633 563.117 23.864 563.285 24.116C563.462 24.368 563.551 24.6993 563.551 25.11C563.551 25.7353 563.327 26.23 562.879 26.594C562.44 26.958 561.847 27.14 561.101 27.14Z" fill="white" fill-opacity="0.5"/>
<defs>
<clipPath id="clip0_1202_13590">
<rect width="18" height="18" fill="white" transform="translate(292 13)"/>
</clipPath>
</defs>
</svg>
